<svg xmlns="http://www.w3.org/2000/svg" xmlns:xlink="http://www.w3.org/1999/xlink" contentStyleType="text/css" data-diagram-type="SEQUENCE" height="737px" preserveAspectRatio="none" style="width:1131px;height:737px;background:#FFFFFF;" version="1.1" viewBox="0 0 1131 737" width="1131px" zoomAndPan="magnify"><defs/><g><rect fill="#ADD8E6" height="725.125" style="stroke:#181818;stroke-width:0.5;" width="266.8257" x="196.2803" y="6"/><text fill="#000000" font-family="sans-serif" font-size="13" font-weight="bold" lengthAdjust="spacing" textLength="138.0107" x="260.6877" y="18.0669">User's smartphone</text><rect fill="#FFA500" height="725.125" style="stroke:#181818;stroke-width:0.5;" width="168.9951" x="511.8804" y="6"/><text fill="#000000" font-family="sans-serif" font-size="13" font-weight="bold" lengthAdjust="spacing" textLength="162.9951" x="514.8804" y="18.0669">User's external device</text><g><title>Wallet Instance</title><rect fill="#FFFFFF" height="149.6641" style="stroke:#181818;stroke-width:1;" width="10" x="392.9551" y="126.8281"/></g><g><title>Wallet Instance</title><rect fill="#FFFFFF" height="182.4688" style="stroke:#181818;stroke-width:1;" width="10" x="392.9551" y="505.3594"/></g><g><title>Wallet Instance</title><rect fill="#FFFFFF" height="23" style="stroke:#181818;stroke-width:1;" width="10" x="397.9551" y="664.8281"/></g><rect fill="#FFFFFF" fill-opacity="0.00000" height="606.3984" style="stroke:#000000;stroke-width:1.5;" width="1114.9966" x="10" y="73.4297"/><rect fill="#FFFFFF" fill-opacity="0.00000" height="279.1328" style="stroke:#000000;stroke-width:1.5;" width="1094.9966" x="20" y="393.6953"/><g><title>User</title><rect fill="#FFFFFF" fill-opacity="0.00000" height="640.3984" width="8" x="48.9551" y="56.4297"/><line style="stroke:#181818;stroke-width:0.5;stroke-dasharray:5.0,5.0;" x1="52" x2="52" y1="56.4297" y2="696.8281"/></g><g><title>Browser</title><rect fill="#FFFFFF" fill-opacity="0.00000" height="640.3984" width="8" x="231.7998" y="56.4297"/><line style="stroke:#181818;stroke-width:0.5;stroke-dasharray:5.0,5.0;" x1="235.2803" x2="235.2803" y1="56.4297" y2="696.8281"/></g><g><title>Wallet Instance</title><rect fill="#FFFFFF" fill-opacity="0.00000" height="640.3984" width="8" x="393.9551" y="56.4297"/><line style="stroke:#181818;stroke-width:0.5;stroke-dasharray:5.0,5.0;" x1="397.8042" x2="397.8042" y1="56.4297" y2="696.8281"/></g><g><title>Browser</title><rect fill="#FFFFFF" fill-opacity="0.00000" height="640.3984" width="8" x="592.3779" y="56.4297"/><line style="stroke:#181818;stroke-width:0.5;stroke-dasharray:5.0,5.0;" x1="595.8584" x2="595.8584" y1="56.4297" y2="696.8281"/></g><g><title>PID/(Q)EAA Provider</title><rect fill="#FFFFFF" fill-opacity="0.00000" height="640.3984" width="8" x="1023.6685" y="56.4297"/><line style="stroke:#181818;stroke-width:0.5;stroke-dasharray:5.0,5.0;" x1="1027.3403" x2="1027.3403" y1="56.4297" y2="696.8281"/></g><g><rect fill="#E2E2F0" height="30.2969" rx="2.5" ry="2.5" style="stroke:#181818;stroke-width:0.5;" width="45.9102" x="30" y="25.1328"/><text fill="#000000" font-family="sans-serif" font-size="14" lengthAdjust="spacing" textLength="31.9102" x="37" y="45.1279">User</text></g><g><rect fill="#E2E2F0" height="30.2969" rx="2.5" ry="2.5" style="stroke:#181818;stroke-width:0.5;" width="45.9102" x="30" y="695.8281"/><text fill="#000000" font-family="sans-serif" font-size="14" lengthAdjust="spacing" textLength="31.9102" x="37" y="715.8232">User</text></g><g><rect fill="#E2E2F0" height="30.2969" rx="2.5" ry="2.5" style="stroke:#181818;stroke-width:0.5;" width="71.0391" x="200.2803" y="25.1328"/><text fill="#000000" font-family="sans-serif" font-size="14" lengthAdjust="spacing" textLength="57.0391" x="207.2803" y="45.1279">Browser</text></g><g><rect fill="#E2E2F0" height="30.2969" rx="2.5" ry="2.5" style="stroke:#181818;stroke-width:0.5;" width="71.0391" x="200.2803" y="695.8281"/><text fill="#000000" font-family="sans-serif" font-size="14" lengthAdjust="spacing" textLength="57.0391" x="207.2803" y="715.8232">Browser</text></g><g><rect fill="#E2E2F0" height="30.2969" rx="2.5" ry="2.5" style="stroke:#181818;stroke-width:0.5;" width="122.3018" x="336.8042" y="25.1328"/><text fill="#000000" font-family="sans-serif" font-size="14" lengthAdjust="spacing" textLength="108.3018" x="343.8042" y="45.1279">Wallet Instance</text></g><g><rect fill="#E2E2F0" height="30.2969" rx="2.5" ry="2.5" style="stroke:#181818;stroke-width:0.5;" width="122.3018" x="336.8042" y="695.8281"/><text fill="#000000" font-family="sans-serif" font-size="14" lengthAdjust="spacing" textLength="108.3018" x="343.8042" y="715.8232">Wallet Instance</text></g><g><rect fill="#E2E2F0" height="30.2969" rx="2.5" ry="2.5" style="stroke:#181818;stroke-width:0.5;" width="71.0391" x="560.8584" y="25.1328"/><text fill="#000000" font-family="sans-serif" font-size="14" lengthAdjust="spacing" textLength="57.0391" x="567.8584" y="45.1279">Browser</text></g><g><rect fill="#E2E2F0" height="30.2969" rx="2.5" ry="2.5" style="stroke:#181818;stroke-width:0.5;" width="71.0391" x="560.8584" y="695.8281"/><text fill="#000000" font-family="sans-serif" font-size="14" lengthAdjust="spacing" textLength="57.0391" x="567.8584" y="715.8232">Browser</text></g><g><rect fill="#E2E2F0" height="30.2969" rx="2.5" ry="2.5" style="stroke:#181818;stroke-width:0.5;" width="154.6563" x="950.3403" y="25.1328"/><text fill="#000000" font-family="sans-serif" font-size="14" lengthAdjust="spacing" textLength="140.6563" x="957.3403" y="45.1279">PID/(Q)EAA Provider</text></g><g><rect fill="#E2E2F0" height="30.2969" rx="2.5" ry="2.5" style="stroke:#181818;stroke-width:0.5;" width="154.6563" x="950.3403" y="695.8281"/><text fill="#000000" font-family="sans-serif" font-size="14" lengthAdjust="spacing" textLength="140.6563" x="957.3403" y="715.8232">PID/(Q)EAA Provider</text></g><g><title>Wallet Instance</title><rect fill="#FFFFFF" height="149.6641" style="stroke:#181818;stroke-width:1;" width="10" x="392.9551" y="126.8281"/></g><g><title>Wallet Instance</title><rect fill="#FFFFFF" height="182.4688" style="stroke:#181818;stroke-width:1;" width="10" x="392.9551" y="505.3594"/></g><g><title>Wallet Instance</title><rect fill="#FFFFFF" height="23" style="stroke:#181818;stroke-width:1;" width="10" x="397.9551" y="664.8281"/></g><path d="M10,73.4297 L74.4429,73.4297 L74.4429,80.5625 L64.4429,90.5625 L10,90.5625 L10,73.4297 " fill="#EEEEEE" style="stroke:#000000;stroke-width:1.5;"/><rect fill="#FFFFFF" fill-opacity="0.00000" height="606.3984" style="stroke:#000000;stroke-width:1.5;" width="1114.9966" x="10" y="73.4297"/><text fill="#000000" font-family="sans-serif" font-size="13" font-weight="bold" lengthAdjust="spacing" textLength="19.4429" x="25" y="86.4966">alt</text><text fill="#000000" font-family="sans-serif" font-size="11" font-weight="bold" lengthAdjust="spacing" textLength="151.6582" x="89.4429" y="85.6401">[if Wallet Initiated Flow]</text><g><polygon fill="#181818" points="380.9551,122.8281,390.9551,126.8281,380.9551,130.8281,384.9551,126.8281" style="stroke:#181818;stroke-width:1;"/><line style="stroke:#181818;stroke-width:1;" x1="52.9551" x2="386.9551" y1="126.8281" y2="126.8281"/><text fill="#000000" font-family="sans-serif" font-size="13" font-weight="bold" lengthAdjust="spacing" textLength="23.0293" x="59.9551" y="114.1958">1.1</text><text fill="#000000" font-family="sans-serif" font-size="13" lengthAdjust="spacing" textLength="193.4893" x="86.9844" y="106.6294">Open the Wallet Instance app</text><text fill="#000000" font-family="sans-serif" font-size="13" lengthAdjust="spacing" textLength="161.4146" x="86.9844" y="121.7622">local user authentication</text></g><g><polygon fill="#181818" points="63.9551,151.9609,53.9551,155.9609,63.9551,159.9609,59.9551,155.9609" style="stroke:#181818;stroke-width:1;"/><line style="stroke:#181818;stroke-width:1;" x1="57.9551" x2="391.9551" y1="155.9609" y2="155.9609"/><text fill="#000000" font-family="sans-serif" font-size="13" font-weight="bold" lengthAdjust="spacing" textLength="23.0293" x="69.9551" y="150.895">1.2</text><text fill="#000000" font-family="sans-serif" font-size="13" lengthAdjust="spacing" textLength="192.1055" x="96.9844" y="150.895">obtain your Digital Credential</text></g><g><polygon fill="#181818" points="380.9551,181.0938,390.9551,185.0938,380.9551,189.0938,384.9551,185.0938" style="stroke:#181818;stroke-width:1;"/><line style="stroke:#181818;stroke-width:1;stroke-dasharray:2.0,2.0;" x1="52.9551" x2="386.9551" y1="185.0938" y2="185.0938"/><text fill="#000000" font-family="sans-serif" font-size="13" font-weight="bold" lengthAdjust="spacing" textLength="23.0293" x="59.9551" y="180.0278">1.3</text><text fill="#000000" font-family="sans-serif" font-size="13" lengthAdjust="spacing" textLength="22.4644" x="86.9844" y="180.0278">yes</text></g><rect fill="#FFFFFF" height="23" style="stroke:#181818;stroke-width:0.5;" width="337" x="229" y="198.0938"/><text fill="#000000" font-family="sans-serif" font-size="13" lengthAdjust="spacing" textLength="329.5132" x="233" y="214.1606">Obtain the list of the Trusted PID/(Q)EAA Providers</text><g><polygon fill="#181818" points="63.9551,243.3594,53.9551,247.3594,63.9551,251.3594,59.9551,247.3594" style="stroke:#181818;stroke-width:1;"/><line style="stroke:#181818;stroke-width:1;" x1="57.9551" x2="391.9551" y1="247.3594" y2="247.3594"/><text fill="#000000" font-family="sans-serif" font-size="13" font-weight="bold" lengthAdjust="spacing" textLength="23.0293" x="69.9551" y="242.2935">1.4</text><text fill="#000000" font-family="sans-serif" font-size="13" lengthAdjust="spacing" textLength="288.9707" x="96.9844" y="242.2935">confirm the selection of PID/(Q)EAA Provider</text></g><g><polygon fill="#181818" points="385.9551,272.4922,395.9551,276.4922,385.9551,280.4922,389.9551,276.4922" style="stroke:#181818;stroke-width:1;"/><line style="stroke:#181818;stroke-width:1;stroke-dasharray:2.0,2.0;" x1="52.9551" x2="391.9551" y1="276.4922" y2="276.4922"/><text fill="#000000" font-family="sans-serif" font-size="13" font-weight="bold" lengthAdjust="spacing" textLength="23.0293" x="59.9551" y="271.4263">1.5</text><text fill="#000000" font-family="sans-serif" font-size="13" lengthAdjust="spacing" textLength="15.4819" x="86.9844" y="271.4263">ok</text></g><line style="stroke:#000000;stroke-width:1;stroke-dasharray:2.0,2.0;" x1="10" x2="1124.9966" y1="285.4922" y2="285.4922"/><text fill="#000000" font-family="sans-serif" font-size="11" font-weight="bold" lengthAdjust="spacing" textLength="149.7461" x="15" y="295.7026">[if Issuer Initiated Flow]</text><g><polygon fill="#181818" points="1015.6685,316.4297,1025.6685,320.4297,1015.6685,324.4297,1019.6685,320.4297" style="stroke:#181818;stroke-width:1;"/><line style="stroke:#181818;stroke-width:1;" x1="52.9551" x2="1021.6685" y1="320.4297" y2="320.4297"/><text fill="#000000" font-family="sans-serif" font-size="13" font-weight="bold" lengthAdjust="spacing" textLength="23.0293" x="59.9551" y="315.3638">2.1</text><text fill="#000000" font-family="sans-serif" font-size="13" lengthAdjust="spacing" textLength="228.3379" x="86.9844" y="315.3638">Open PID/(Q)/EAA Provider website</text></g><g><polygon fill="#181818" points="63.9551,345.5625,53.9551,349.5625,63.9551,353.5625,59.9551,349.5625" style="stroke:#181818;stroke-width:1;"/><line style="stroke:#181818;stroke-width:1;" x1="57.9551" x2="1026.6685" y1="349.5625" y2="349.5625"/><text fill="#000000" font-family="sans-serif" font-size="13" font-weight="bold" lengthAdjust="spacing" textLength="23.0293" x="69.9551" y="344.4966">2.2</text><text fill="#000000" font-family="sans-serif" font-size="13" lengthAdjust="spacing" textLength="192.1055" x="96.9844" y="344.4966">obtain your Digital Credential</text></g><g><polygon fill="#181818" points="1015.6685,374.6953,1025.6685,378.6953,1015.6685,382.6953,1019.6685,378.6953" style="stroke:#181818;stroke-width:1;"/><line style="stroke:#181818;stroke-width:1;stroke-dasharray:2.0,2.0;" x1="52.9551" x2="1021.6685" y1="378.6953" y2="378.6953"/><text fill="#000000" font-family="sans-serif" font-size="13" font-weight="bold" lengthAdjust="spacing" textLength="23.0293" x="59.9551" y="373.6294">2.3</text><text fill="#000000" font-family="sans-serif" font-size="13" lengthAdjust="spacing" textLength="22.4644" x="86.9844" y="373.6294">yes</text></g><path d="M20,393.6953 L84.4429,393.6953 L84.4429,400.8281 L74.4429,410.8281 L20,410.8281 L20,393.6953 " fill="#EEEEEE" style="stroke:#000000;stroke-width:1.5;"/><rect fill="#FFFFFF" fill-opacity="0.00000" height="279.1328" style="stroke:#000000;stroke-width:1.5;" width="1094.9966" x="20" y="393.6953"/><text fill="#000000" font-family="sans-serif" font-size="13" font-weight="bold" lengthAdjust="spacing" textLength="19.4429" x="35" y="406.7622">alt</text><text fill="#000000" font-family="sans-serif" font-size="11" font-weight="bold" lengthAdjust="spacing" textLength="134.7661" x="99.4429" y="405.9058">[if Cross Device Flow]</text><g><polygon fill="#181818" points="607.3779,427.9609,597.3779,431.9609,607.3779,435.9609,603.3779,431.9609" style="stroke:#181818;stroke-width:1;"/><line style="stroke:#181818;stroke-width:1;" x1="601.3779" x2="1026.6685" y1="431.9609" y2="431.9609"/><text fill="#000000" font-family="sans-serif" font-size="13" font-weight="bold" lengthAdjust="spacing" textLength="23.0293" x="613.3779" y="426.895">2.4</text><text fill="#000000" font-family="sans-serif" font-size="13" lengthAdjust="spacing" textLength="335.2832" x="640.4072" y="426.895">html page with QRCode containing Credential Offer</text></g><g><polygon fill="#181818" points="63.9551,457.0938,53.9551,461.0938,63.9551,465.0938,59.9551,461.0938" style="stroke:#181818;stroke-width:1;"/><line style="stroke:#181818;stroke-width:1;" x1="57.9551" x2="595.3779" y1="461.0938" y2="461.0938"/><text fill="#000000" font-family="sans-serif" font-size="13" font-weight="bold" lengthAdjust="spacing" textLength="23.0293" x="69.9551" y="456.0278">2.5</text><text fill="#000000" font-family="sans-serif" font-size="13" lengthAdjust="spacing" textLength="153.8228" x="96.9844" y="456.0278">Show the QRCode page</text></g><g><polygon fill="#181818" points="380.9551,501.3594,390.9551,505.3594,380.9551,509.3594,384.9551,505.3594" style="stroke:#181818;stroke-width:1;"/><line style="stroke:#181818;stroke-width:1;stroke-dasharray:2.0,2.0;" x1="52.9551" x2="386.9551" y1="505.3594" y2="505.3594"/><text fill="#000000" font-family="sans-serif" font-size="13" font-weight="bold" lengthAdjust="spacing" textLength="23.0293" x="59.9551" y="492.7271">2.6</text><text fill="#000000" font-family="sans-serif" font-size="13" lengthAdjust="spacing" textLength="193.4893" x="86.9844" y="485.1606">Open the Wallet Instance app</text><text fill="#000000" font-family="sans-serif" font-size="13" lengthAdjust="spacing" textLength="161.4146" x="86.9844" y="500.2935">local user authentication</text></g><g><line style="stroke:#181818;stroke-width:1;" x1="402.9551" x2="444.9551" y1="534.4922" y2="534.4922"/><line style="stroke:#181818;stroke-width:1;" x1="444.9551" x2="444.9551" y1="534.4922" y2="547.4922"/><line style="stroke:#181818;stroke-width:1;" x1="403.9551" x2="444.9551" y1="547.4922" y2="547.4922"/><polygon fill="#181818" points="413.9551,543.4922,403.9551,547.4922,413.9551,551.4922,409.9551,547.4922" style="stroke:#181818;stroke-width:1;"/><text fill="#000000" font-family="sans-serif" font-size="13" font-weight="bold" lengthAdjust="spacing" textLength="23.0293" x="409.9551" y="529.4263">2.7</text><text fill="#000000" font-family="sans-serif" font-size="13" lengthAdjust="spacing" textLength="92.4155" x="436.9844" y="529.4263">Scan QR Code</text></g><line style="stroke:#000000;stroke-width:1;stroke-dasharray:2.0,2.0;" x1="20" x2="1114.9966" y1="556.4922" y2="556.4922"/><text fill="#000000" font-family="sans-serif" font-size="11" font-weight="bold" lengthAdjust="spacing" textLength="134.8843" x="25" y="566.7026">[if Same Device Flow]</text><g><polygon fill="#181818" points="246.7998,587.4297,236.7998,591.4297,246.7998,595.4297,242.7998,591.4297" style="stroke:#181818;stroke-width:1;"/><line style="stroke:#181818;stroke-width:1;" x1="240.7998" x2="1026.6685" y1="591.4297" y2="591.4297"/><text fill="#000000" font-family="sans-serif" font-size="13" font-weight="bold" lengthAdjust="spacing" textLength="23.0293" x="252.7998" y="586.3638">2.8</text><text fill="#000000" font-family="sans-serif" font-size="13" lengthAdjust="spacing" textLength="308.896" x="279.8291" y="586.3638">html page with href containing Credential Offer</text></g><g><polygon fill="#181818" points="63.9551,616.5625,53.9551,620.5625,63.9551,624.5625,59.9551,620.5625" style="stroke:#181818;stroke-width:1;"/><line style="stroke:#181818;stroke-width:1;" x1="57.9551" x2="234.7998" y1="620.5625" y2="620.5625"/><text fill="#000000" font-family="sans-serif" font-size="13" font-weight="bold" lengthAdjust="spacing" textLength="23.0293" x="69.9551" y="615.4966">2.9</text><text fill="#000000" font-family="sans-serif" font-size="13" lengthAdjust="spacing" textLength="131.8154" x="96.9844" y="615.4966">click the href button</text></g><g><polygon fill="#181818" points="385.9551,660.8281,395.9551,664.8281,385.9551,668.8281,389.9551,664.8281" style="stroke:#181818;stroke-width:1;"/><line style="stroke:#181818;stroke-width:1;stroke-dasharray:2.0,2.0;" x1="52.9551" x2="391.9551" y1="664.8281" y2="664.8281"/><text fill="#000000" font-family="sans-serif" font-size="13" font-weight="bold" lengthAdjust="spacing" textLength="32.0747" x="59.9551" y="652.1958">2.10</text><text fill="#000000" font-family="sans-serif" font-size="13" lengthAdjust="spacing" textLength="193.4893" x="96.0298" y="644.6294">Open the Wallet Instance app</text><text fill="#000000" font-family="sans-serif" font-size="13" lengthAdjust="spacing" textLength="161.4146" x="96.0298" y="659.7622">local user authentication</text></g><!--SRC=[hL9BQzj04BxFhnZiGzj36jAZ3u4aJgcXuAHEoQMNaJIoXgntnJwivDztTgtMTcfQ2ha88SttdA4KdKsRYZrUVBm0wCb7gQKd6t7oFR2V80LC09Lxtdru5p1iTAhldEK9Jh_AkelN9l4nzjgxuHUyyiV_7iaOZhYm8PAjkSmCmBP1LJcMukV8tfB1XhUIHwTBJtRzLp7UKnrDtItcv-_lFznUNU6TTrjfHeG0a8aeBVus9b4eSeEVZHi04fvTuZ33PSyMOyVuAW1It_-mnjNgCwaFfAHJLfKfYhD0TPIjycd88LEb6RegabXySSdZNDOI5NhZkSaeCbbn9_d20S1Rfs2tLUO1fuzV5W-tiDmHP3T6GaJNblS7dq8sVY9hoBKKAe3Xx59DrCwsuZS56DXmdTrcfXDeRK4jgIFt1D3mGIHW4pYtjmWXgSNNxT7-n3xb4ojjojZcg7H-A8K3Lq7KflnFMJAMDQxonhiGS5wkPZHIwFGyPjZ5ZS6UrcfVOeVttsvSmxcEh2DsVS2EoxRLz0eRpQmwDvJ6HbIcsU_hhKv4gLOrMHN1h0Amhtb56puPx8zSdUVs7wd6KBMH-gduBfWgHTqPm9lcokTN7Zy1]--></g></svg>