<svg xmlns="http://www.w3.org/2000/svg" xmlns:xlink="http://www.w3.org/1999/xlink" contentStyleType="text/css" data-diagram-type="STATE" height="499px" preserveAspectRatio="none" style="width:430px;height:499px;background:#FFFFFF;" version="1.1" viewBox="0 0 430 499" width="430px" zoomAndPan="magnify"><defs/><g><rect fill="#FFA500" height="40" rx="12.5" ry="12.5" style="stroke:#181818;stroke-width:0.5;" width="69.6436" x="32.27" y="103"/><text fill="#000000" font-family="sans-serif" font-size="14" lengthAdjust="spacing" textLength="59.6436" x="37.27" y="127.8467">Installed</text><rect fill="#FFFF00" height="40" rx="12.5" ry="12.5" style="stroke:#181818;stroke-width:0.5;" width="92.1406" x="184.02" y="103"/><text fill="#000000" font-family="sans-serif" font-size="14" lengthAdjust="spacing" textLength="82.1406" x="189.02" y="127.8467">Operational</text><rect fill="#008000" height="40" rx="12.5" ry="12.5" style="stroke:#181818;stroke-width:0.5;" width="50" x="115.09" y="236"/><text fill="#000000" font-family="sans-serif" font-size="14" lengthAdjust="spacing" textLength="34.8223" x="122.6789" y="260.8467">Valid</text><rect fill="#D64545" height="40" rx="12.5" ry="12.5" style="stroke:#181818;stroke-width:0.5;" width="88.5244" x="95.83" y="354"/><text fill="#000000" font-family="sans-serif" font-size="14" lengthAdjust="spacing" textLength="78.5244" x="100.83" y="378.8467">Uninstalled</text><ellipse cx="67.09" cy="16" fill="#222222" rx="10" ry="10" style="stroke:#222222;stroke-width:1;"/><ellipse cx="140.09" cy="482" fill="#FFFFFF" fill-opacity="0.00000" rx="11" ry="11" style="stroke:#222222;stroke-width:1;"/><ellipse cx="140.09" cy="482" fill="#222222" rx="6" ry="6" style="stroke:#222222;stroke-width:1;"/><!--link *start* to Installed--><g id="link_*start*_Installed"><path d="M67.09,26.32 C67.09,43.38 67.09,73.98 67.09,96.64 " fill="#FFFFFF" fill-opacity="0.00000" id="*start*-to-Installed" style="stroke:#181818;stroke-width:1;"/><polygon fill="#181818" points="67.09,102.64,71.09,93.64,67.09,97.64,63.09,93.64,67.09,102.64" style="stroke:#181818;stroke-width:1;"/><text fill="#000000" font-family="sans-serif" font-size="13" lengthAdjust="spacing" textLength="50.5718" x="68.09" y="69.0669">WI INST</text></g><!--link Installed to Uninstalled--><g id="link_Installed_Uninstalled"><path d="M54.04,143.1 C35.5,172.81 6,231.4 27.09,277 C42.76,310.88 71.8205,334.0347 98.5105,350.4647 " fill="#FFFFFF" fill-opacity="0.00000" id="Installed-to-Uninstalled" style="stroke:#181818;stroke-width:1;"/><polygon fill="#181818" points="103.62,353.61,98.0527,345.4857,99.3621,350.9889,93.8589,352.2983,103.62,353.61" style="stroke:#181818;stroke-width:1;"/><text fill="#000000" font-family="sans-serif" font-size="13" lengthAdjust="spacing" textLength="69.8115" x="28.09" y="260.5669">WI UNINST</text></g><!--link Installed to Operational--><g id="link_Installed_Operational"><path d="M102.06,123 C125.91,123 151.76,123 177.73,123 " fill="#FFFFFF" fill-opacity="0.00000" id="Installed-to-Operational" style="stroke:#181818;stroke-width:1;"/><polygon fill="#181818" points="183.73,123,174.73,119,178.73,123,174.73,127,183.73,123" style="stroke:#181818;stroke-width:1;"/><text fill="#000000" font-family="sans-serif" font-size="13" lengthAdjust="spacing" textLength="46.7314" x="119.97" y="116.0669">WI ACT</text></g><!--reverse link Installed to Operational--><g id="link_Installed_Operational"><path d="M107.9979,140.4598 C113.4779,142.2998 113.46,141.98 118.97,143 C139.94,146.9 145.88,146.26 166.97,143 C172.42,142.16 178.05,140.93 183.59,139.48 " fill="#FFFFFF" fill-opacity="0.00000" id="Installed-backto-Operational" style="stroke:#181818;stroke-width:1;"/><polygon fill="#181818" points="102.31,138.55,109.5687,145.2067,107.0499,140.1415,112.1151,137.6228,102.31,138.55" style="stroke:#181818;stroke-width:1;"/><text fill="#000000" font-family="sans-serif" font-size="13" lengthAdjust="spacing" textLength="46.96" x="119.97" y="139.0669">WI REV</text></g><!--link Operational to Uninstalled--><g id="link_Operational_Uninstalled"><path d="M254.63,143.27 C288.72,172.47 343.19,229.54 315.09,277 C287.11,324.26 232.4365,348.0744 190.4765,360.6744 " fill="#FFFFFF" fill-opacity="0.00000" id="Operational-to-Uninstalled" style="stroke:#181818;stroke-width:1;"/><polygon fill="#181818" points="184.73,362.4,194.5002,363.6426,189.5188,360.962,192.1994,355.9806,184.73,362.4" style="stroke:#181818;stroke-width:1;"/><text fill="#000000" font-family="sans-serif" font-size="13" lengthAdjust="spacing" textLength="69.8115" x="323.09" y="260.5669">WI UNINST</text></g><!--link Operational to Operational--><g id="link_Operational_Operational"><path d="M276.34,112.11 C295.23,111.43 311.16,115.06 311.16,123 C311.16,130.94 301.2261,134.7858 282.3361,134.1058 " fill="#FFFFFF" fill-opacity="0.00000" id="Operational-to-Operational" style="stroke:#181818;stroke-width:1;"/><polygon fill="#181818" points="276.34,133.89,285.1903,138.2112,281.3368,134.0699,285.4781,130.2164,276.34,133.89" style="stroke:#181818;stroke-width:1;"/><text fill="#0000FF" font-family="sans-serif" font-size="13" lengthAdjust="spacing" textLength="100.312" x="317.16" y="127.5669">(Q)EAA ISS/PRE</text></g><!--link Operational to Valid--><g id="link_Operational_Valid"><path d="M231.24,143.24 C231.36,160.71 229.13,186.5 217.09,205 C204.83,223.84 188.1583,234.5553 170.7583,242.6653 " fill="#FFFFFF" fill-opacity="0.00000" id="Operational-to-Valid" style="stroke:#181818;stroke-width:1;"/><polygon fill="#181818" points="165.32,245.2,175.1673,245.0234,169.8519,243.0877,171.7876,237.7724,165.32,245.2" style="stroke:#181818;stroke-width:1;"/><text fill="#0000FF" font-family="sans-serif" font-size="13" lengthAdjust="spacing" textLength="46.1538" x="229.09" y="193.5669">PID ISS</text></g><!--reverse link Operational to Valid--><g id="link_Operational_Valid"><path d="M178.3425,144.8793 C164.7425,152.4193 156.52,159.69 148.09,173 C136.23,191.73 135.8,217.84 137.3,235.53 " fill="#FFFFFF" fill-opacity="0.00000" id="Operational-backto-Valid" style="stroke:#181818;stroke-width:1;"/><polygon fill="#181818" points="183.59,141.97,173.7793,142.8356,179.2171,144.3944,177.6583,149.8322,183.59,141.97" style="stroke:#181818;stroke-width:1;"/><text fill="#0000FF" font-family="sans-serif" font-size="13" lengthAdjust="spacing" textLength="55.1548" x="149.09" y="186.0669">PID EXP/</text><text fill="#000000" font-family="sans-serif" font-size="13" lengthAdjust="spacing" textLength="4.1323" x="204.2448" y="186.0669">&#160;</text><text fill="#0000FF" font-family="sans-serif" font-size="13" lengthAdjust="spacing" textLength="55.9863" x="150.7404" y="201.1997">REV/DEL</text></g><!--reverse link Installed to Valid--><g id="link_Installed_Valid"><path d="M59.7334,149.0728 C55.5734,166.3228 53.81,185.92 64.09,205 C74.73,224.74 96.95,237.97 114.63,245.83 " fill="#FFFFFF" fill-opacity="0.00000" id="Installed-backto-Valid" style="stroke:#181818;stroke-width:1;"/><polygon fill="#181818" points="61.14,143.24,55.1415,151.0514,59.9678,148.1007,62.9186,152.9269,61.14,143.24" style="stroke:#181818;stroke-width:1;"/><text fill="#000000" font-family="sans-serif" font-size="13" lengthAdjust="spacing" textLength="46.96" x="65.09" y="193.5669">WI REV</text></g><!--link Valid to Valid--><g id="link_Valid_Valid"><path d="M165.37,245.93 C182.86,242.88 200.09,246.24 200.09,256 C200.09,265.76 188.7708,270.1508 171.2808,267.1008 " fill="#FFFFFF" fill-opacity="0.00000" id="Valid-to-Valid" style="stroke:#181818;stroke-width:1;"/><polygon fill="#181818" points="165.37,266.07,173.549,271.5567,170.2957,266.929,174.9234,263.6756,165.37,266.07" style="stroke:#181818;stroke-width:1;"/><text fill="#0000FF" font-family="sans-serif" font-size="13" lengthAdjust="spacing" textLength="99.6328" x="206.09" y="253.0669">(Q)EEA ISS/PRE</text><text fill="#000000" font-family="sans-serif" font-size="13" lengthAdjust="spacing" textLength="4.1323" x="305.7228" y="253.0669">&#160;</text><text fill="#0000FF" font-family="sans-serif" font-size="13" lengthAdjust="spacing" textLength="50.9019" x="232.5216" y="268.1997">PID PRE</text></g><!--link Valid to Uninstalled--><g id="link_Valid_Uninstalled"><path d="M140.09,276.42 C140.09,297.83 140.09,326.08 140.09,347.52 " fill="#FFFFFF" fill-opacity="0.00000" id="Valid-to-Uninstalled" style="stroke:#181818;stroke-width:1;"/><polygon fill="#181818" points="140.09,353.52,144.09,344.52,140.09,348.52,136.09,344.52,140.09,353.52" style="stroke:#181818;stroke-width:1;"/><text fill="#000000" font-family="sans-serif" font-size="13" lengthAdjust="spacing" textLength="69.8115" x="141.09" y="320.0669">WI UNINST</text></g><!--link Uninstalled to *end*--><g id="link_Uninstalled_*end*"><path d="M140.09,394.44 C140.09,416.91 140.09,447.06 140.09,464.68 " fill="#FFFFFF" fill-opacity="0.00000" id="Uninstalled-to-*end*" style="stroke:#181818;stroke-width:1;"/><polygon fill="#181818" points="140.09,470.68,144.09,461.68,140.09,465.68,136.09,461.68,140.09,470.68" style="stroke:#181818;stroke-width:1;"/><text fill="#000000" font-family="sans-serif" font-size="13" lengthAdjust="spacing" textLength="4.1323" x="141.09" y="437.0669">&#160;</text></g><!--SRC=[ZP9HQuCm58NV_HKN-h8Dn6pKCKG2CbCGHkVgsWtMFRYQhe5CHLF6zkkNMDl6Q5bzKNA_U-uvrsnOHe5-bU87CbglAbOALkIMLOjKK8Xo-UQSPZ2QJ08NeVRyiQHLgi2KmsWjdqDbaN8cQOJkqE5idhEZJdWxTiUkPG70szKxs5dndTluECc3bmYYQVAi2Ct07jJ46dG-7O8hzhaHajQCDdHmlqFr06SeTt1ErwBdU4OMVTAOxwyANbJU1zzIVF5qIO80eYHnuXdndQQ4JtfhrjfLYADGjNTQTzktjwKnskmZhx6pRuHbhfTb42Sa3oTbXsEtnA1H5PNqeXfZbIjp4Qte_xz7ls2sHEN5aXPgzakzwnliE-eB_m40]--></g></svg>