<svg xmlns="http://www.w3.org/2000/svg" xmlns:xlink="http://www.w3.org/1999/xlink" contentStyleType="text/css" data-diagram-type="ACTIVITY" height="1037px" preserveAspectRatio="none" style="width:908px;height:1037px;background:#FFFFFF;" version="1.1" viewBox="0 0 908 1037" width="908px" zoomAndPan="magnify"><defs/><g><path d="M482.368,10 L482.368,56.3984 L462.368,60.3984 L482.368,64.3984 L482.368,110.7969 A0,0 0 0 0 482.368,110.7969 L700.1073,110.7969 A0,0 0 0 0 700.1073,110.7969 L700.1073,20 L690.1073,10 L482.368,10 A0,0 0 0 0 482.368,10" fill="#FEFFDD" style="stroke:#181818;stroke-width:0.5;"/><path d="M690.1073,10 L690.1073,20 L700.1073,20 L690.1073,10" fill="#FEFFDD" style="stroke:#181818;stroke-width:0.5;"/><text fill="#000000" font-family="sans-serif" font-size="13" lengthAdjust="spacing" textLength="37.3306" x="503.212" y="27.0669">When</text><text fill="#000000" font-family="sans-serif" font-size="13" lengthAdjust="spacing" textLength="4.1323" x="540.5426" y="27.0669">&#160;</text><text fill="#000000" font-family="sans-serif" font-size="13" lengthAdjust="spacing" textLength="7.9663" x="544.6749" y="27.0669">a</text><text fill="#000000" font-family="sans-serif" font-size="13" lengthAdjust="spacing" textLength="4.1323" x="552.6412" y="27.0669">&#160;</text><text fill="#000000" font-family="sans-serif" font-size="13" lengthAdjust="spacing" textLength="42.1611" x="556.7736" y="27.0669">Digital</text><text fill="#000000" font-family="sans-serif" font-size="13" lengthAdjust="spacing" textLength="4.1323" x="598.9347" y="27.0669">&#160;</text><text fill="#000000" font-family="sans-serif" font-size="13" lengthAdjust="spacing" textLength="67.1963" x="603.067" y="27.0669">Credential</text><text fill="#000000" font-family="sans-serif" font-size="13" lengthAdjust="spacing" textLength="39.2603" x="504.4308" y="42.1997">needs</text><text fill="#000000" font-family="sans-serif" font-size="13" lengthAdjust="spacing" textLength="4.1323" x="543.691" y="42.1997">&#160;</text><text fill="#000000" font-family="sans-serif" font-size="13" lengthAdjust="spacing" textLength="13.0508" x="547.8234" y="42.1997">to</text><text fill="#000000" font-family="sans-serif" font-size="13" lengthAdjust="spacing" textLength="4.1323" x="560.8741" y="42.1997">&#160;</text><text fill="#000000" font-family="sans-serif" font-size="13" lengthAdjust="spacing" textLength="16.25" x="565.0065" y="42.1997">be</text><text fill="#000000" font-family="sans-serif" font-size="13" lengthAdjust="spacing" textLength="4.1323" x="581.2565" y="42.1997">&#160;</text><text fill="#000000" font-family="sans-serif" font-size="13" lengthAdjust="spacing" textLength="58.189" x="585.3888" y="42.1997">updated,</text><text fill="#000000" font-family="sans-serif" font-size="13" lengthAdjust="spacing" textLength="4.1323" x="643.5778" y="42.1997">&#160;</text><text fill="#000000" font-family="sans-serif" font-size="13" lengthAdjust="spacing" textLength="21.3345" x="647.7101" y="42.1997">the</text><text fill="#000000" font-family="sans-serif" font-size="13" lengthAdjust="spacing" textLength="67.1963" x="488.368" y="57.3325">Credential</text><text fill="#000000" font-family="sans-serif" font-size="13" lengthAdjust="spacing" textLength="4.1323" x="555.5643" y="57.3325">&#160;</text><text fill="#000000" font-family="sans-serif" font-size="13" lengthAdjust="spacing" textLength="45.7349" x="559.6967" y="57.3325">Issuers</text><text fill="#000000" font-family="sans-serif" font-size="13" lengthAdjust="spacing" textLength="4.1323" x="605.4315" y="57.3325">&#160;</text><text fill="#000000" font-family="sans-serif" font-size="13" lengthAdjust="spacing" textLength="28.0503" x="609.5638" y="57.3325">MAY</text><text fill="#000000" font-family="sans-serif" font-size="13" lengthAdjust="spacing" textLength="4.1323" x="637.6141" y="57.3325">&#160;</text><text fill="#000000" font-family="sans-serif" font-size="13" lengthAdjust="spacing" textLength="31.2622" x="641.7465" y="57.3325">send</text><text fill="#000000" font-family="sans-serif" font-size="13" lengthAdjust="spacing" textLength="4.1323" x="673.0087" y="57.3325">&#160;</text><text fill="#000000" font-family="sans-serif" font-size="13" lengthAdjust="spacing" textLength="7.9663" x="677.141" y="57.3325">a</text><text fill="#000000" font-family="sans-serif" font-size="13" lengthAdjust="spacing" textLength="73.106" x="492.3544" y="72.4653">notification</text><text fill="#000000" font-family="sans-serif" font-size="13" lengthAdjust="spacing" textLength="4.1323" x="565.4603" y="72.4653">&#160;</text><text fill="#000000" font-family="sans-serif" font-size="13" lengthAdjust="spacing" textLength="13.0508" x="569.5927" y="72.4653">to</text><text fill="#000000" font-family="sans-serif" font-size="13" lengthAdjust="spacing" textLength="4.1323" x="582.6434" y="72.4653">&#160;</text><text fill="#000000" font-family="sans-serif" font-size="13" lengthAdjust="spacing" textLength="21.3345" x="586.7758" y="72.4653">the</text><text fill="#000000" font-family="sans-serif" font-size="13" lengthAdjust="spacing" textLength="4.1323" x="608.1102" y="72.4653">&#160;</text><text fill="#000000" font-family="sans-serif" font-size="13" lengthAdjust="spacing" textLength="29.6309" x="612.2426" y="72.4653">User</text><text fill="#000000" font-family="sans-serif" font-size="13" lengthAdjust="spacing" textLength="4.1323" x="641.8734" y="72.4653">&#160;</text><text fill="#000000" font-family="sans-serif" font-size="13" lengthAdjust="spacing" textLength="35.1152" x="646.0057" y="72.4653">using</text><text fill="#000000" font-family="sans-serif" font-size="13" lengthAdjust="spacing" textLength="7.9663" x="507.3317" y="87.5981">a</text><text fill="#000000" font-family="sans-serif" font-size="13" lengthAdjust="spacing" textLength="4.1323" x="515.298" y="87.5981">&#160;</text><text fill="#000000" font-family="sans-serif" font-size="13" lengthAdjust="spacing" textLength="66.6694" x="519.4303" y="87.5981">registered</text><text fill="#000000" font-family="sans-serif" font-size="13" lengthAdjust="spacing" textLength="4.1323" x="586.0997" y="87.5981">&#160;</text><text fill="#000000" font-family="sans-serif" font-size="13" lengthAdjust="spacing" textLength="75.9116" x="590.2321" y="87.5981">out-of-band</text><text fill="#000000" font-family="sans-serif" font-size="13" lengthAdjust="spacing" textLength="100.5342" x="506.6176" y="102.731">communication</text><text fill="#000000" font-family="sans-serif" font-size="13" lengthAdjust="spacing" textLength="4.1323" x="607.1517" y="102.731">&#160;</text><text fill="#000000" font-family="sans-serif" font-size="13" lengthAdjust="spacing" textLength="55.5737" x="611.2841" y="102.731">channel.</text><ellipse cx="452.368" cy="60.3984" fill="#222222" rx="10" ry="10" style="stroke:#222222;stroke-width:1;"/><rect fill="#F1F1F1" height="33.9688" rx="12.5" ry="12.5" style="stroke:#181818;stroke-width:0.5;" width="184.0098" x="360.3632" y="130.7969"/><text fill="#000000" font-family="sans-serif" font-size="12" lengthAdjust="spacing" textLength="27.3516" x="370.3632" y="151.9355">User</text><text fill="#000000" font-family="sans-serif" font-size="12" lengthAdjust="spacing" textLength="3.8145" x="397.7147" y="151.9355">&#160;</text><text fill="#000000" font-family="sans-serif" font-size="12" lengthAdjust="spacing" textLength="36.1992" x="401.5292" y="151.9355">opens</text><text fill="#000000" font-family="sans-serif" font-size="12" lengthAdjust="spacing" textLength="3.8145" x="437.7284" y="151.9355">&#160;</text><text fill="#000000" font-family="sans-serif" font-size="12" lengthAdjust="spacing" textLength="37.9746" x="441.5428" y="151.9355">Wallet</text><text fill="#000000" font-family="sans-serif" font-size="12" lengthAdjust="spacing" textLength="3.8145" x="479.5175" y="151.9355">&#160;</text><text fill="#000000" font-family="sans-serif" font-size="12" lengthAdjust="spacing" textLength="51.041" x="483.3319" y="151.9355">Instance</text><polygon fill="#F1F1F1" points="388.0062,184.7656,516.7299,184.7656,528.7299,197.5703,516.7299,210.375,388.0062,210.375,376.0062,197.5703,388.0062,184.7656" style="stroke:#181818;stroke-width:0.5;"/><text fill="#000000" font-family="sans-serif" font-size="11" lengthAdjust="spacing" textLength="61.5098" x="388.0062" y="194.9761">Revocation</text><text fill="#000000" font-family="sans-serif" font-size="11" lengthAdjust="spacing" textLength="3.4966" x="449.516" y="194.9761">&#160;</text><text fill="#000000" font-family="sans-serif" font-size="11" lengthAdjust="spacing" textLength="63.7173" x="453.0126" y="194.9761">mechanism</text><text fill="#000000" font-family="sans-serif" font-size="11" lengthAdjust="spacing" textLength="3.4966" x="410.7072" y="207.7808">&#160;</text><text fill="#000000" font-family="sans-serif" font-size="11" lengthAdjust="spacing" textLength="9.2168" x="414.2037" y="207.7808">=</text><text fill="#000000" font-family="sans-serif" font-size="11" lengthAdjust="spacing" textLength="3.4966" x="423.4205" y="207.7808">&#160;</text><text fill="#000000" font-family="sans-serif" font-size="11" lengthAdjust="spacing" textLength="35.0518" x="426.9171" y="207.7808">Status</text><text fill="#000000" font-family="sans-serif" font-size="11" lengthAdjust="spacing" textLength="3.4966" x="461.9689" y="207.7808">&#160;</text><text fill="#000000" font-family="sans-serif" font-size="11" lengthAdjust="spacing" textLength="19.2285" x="465.4655" y="207.7808">List</text><text fill="#000000" font-family="sans-serif" font-size="11" lengthAdjust="spacing" textLength="3.4966" x="484.694" y="207.7808">&#160;</text><text fill="#000000" font-family="sans-serif" font-size="11" lengthAdjust="spacing" textLength="5.8384" x="488.1906" y="207.7808">?</text><text fill="#666666" font-family="sans-serif" font-size="12" lengthAdjust="spacing" textLength="20.7363" x="355.2699" y="194.7402">yes</text><text fill="#666666" font-family="sans-serif" font-size="12" lengthAdjust="spacing" textLength="14.9473" x="528.7299" y="194.7402">no</text><path d="M10,224.2109 L10,264.4766 A0,0 0 0 0 10,264.4766 L185.1528,264.4766 A0,0 0 0 0 185.1528,264.4766 L185.1528,248.3438 L205.1528,244.3438 L185.1528,240.3438 L185.1528,234.2109 L175.1528,224.2109 L10,224.2109 A0,0 0 0 0 10,224.2109" fill="#FEFFDD" style="stroke:#181818;stroke-width:0.5;"/><path d="M175.1528,224.2109 L175.1528,234.2109 L185.1528,234.2109 L175.1528,224.2109" fill="#FEFFDD" style="stroke:#181818;stroke-width:0.5;"/><text fill="#000000" font-family="sans-serif" font-size="13" lengthAdjust="spacing" textLength="58.7285" x="16.2952" y="241.2778">Required</text><text fill="#000000" font-family="sans-serif" font-size="13" lengthAdjust="spacing" textLength="4.1323" x="75.0237" y="241.2778">&#160;</text><text fill="#000000" font-family="sans-serif" font-size="13" lengthAdjust="spacing" textLength="35.1089" x="79.156" y="241.2778">when</text><text fill="#000000" font-family="sans-serif" font-size="13" lengthAdjust="spacing" textLength="4.1323" x="114.2649" y="241.2778">&#160;</text><text fill="#000000" font-family="sans-serif" font-size="13" lengthAdjust="spacing" textLength="16.1929" x="118.3972" y="241.2778">no</text><text fill="#000000" font-family="sans-serif" font-size="13" lengthAdjust="spacing" textLength="4.1323" x="134.5901" y="241.2778">&#160;</text><text fill="#000000" font-family="sans-serif" font-size="13" lengthAdjust="spacing" textLength="31.1353" x="138.7224" y="241.2778">valid</text><text fill="#000000" font-family="sans-serif" font-size="13" lengthAdjust="spacing" textLength="41.4248" x="16" y="256.4106">Status</text><text fill="#000000" font-family="sans-serif" font-size="13" lengthAdjust="spacing" textLength="4.1323" x="57.4248" y="256.4106">&#160;</text><text fill="#000000" font-family="sans-serif" font-size="13" lengthAdjust="spacing" textLength="22.7246" x="61.5571" y="256.4106">List</text><text fill="#000000" font-family="sans-serif" font-size="13" lengthAdjust="spacing" textLength="4.1323" x="84.2817" y="256.4106">&#160;</text><text fill="#000000" font-family="sans-serif" font-size="13" lengthAdjust="spacing" textLength="39.6602" x="88.4141" y="256.4106">Token</text><text fill="#000000" font-family="sans-serif" font-size="13" lengthAdjust="spacing" textLength="4.1323" x="128.0742" y="256.4106">&#160;</text><text fill="#000000" font-family="sans-serif" font-size="13" lengthAdjust="spacing" textLength="37.9463" x="132.2065" y="256.4106">exists</text><rect fill="#F1F1F1" height="47.9375" rx="12.5" ry="12.5" style="stroke:#181818;stroke-width:0.5;" width="198.1426" x="205.1528" y="220.375"/><text fill="#000000" font-family="sans-serif" font-size="12" lengthAdjust="spacing" textLength="50.5605" x="215.1528" y="241.5137">Retrieve</text><text fill="#000000" font-family="sans-serif" font-size="12" lengthAdjust="spacing" textLength="3.8145" x="265.7134" y="241.5137">&#160;</text><text fill="#000000" font-family="sans-serif" font-size="12" lengthAdjust="spacing" textLength="38.2383" x="269.5278" y="241.5137">Status</text><text fill="#000000" font-family="sans-serif" font-size="12" lengthAdjust="spacing" textLength="3.8145" x="307.7661" y="241.5137">&#160;</text><text fill="#000000" font-family="sans-serif" font-size="12" lengthAdjust="spacing" textLength="20.9766" x="311.5806" y="241.5137">List</text><text fill="#000000" font-family="sans-serif" font-size="12" lengthAdjust="spacing" textLength="3.8145" x="332.5571" y="241.5137">&#160;</text><text fill="#000000" font-family="sans-serif" font-size="12" lengthAdjust="spacing" textLength="36.6094" x="336.3716" y="241.5137">Token</text><text fill="#000000" font-family="sans-serif" font-size="12" lengthAdjust="spacing" textLength="3.8145" x="372.981" y="241.5137">&#160;</text><text fill="#000000" font-family="sans-serif" font-size="12" lengthAdjust="spacing" textLength="16.5" x="376.7954" y="241.5137">for</text><text fill="#000000" font-family="sans-serif" font-size="12" lengthAdjust="spacing" textLength="3.8145" x="247.1538" y="255.4824">&#160;</text><text fill="#000000" font-family="sans-serif" font-size="12" lengthAdjust="spacing" textLength="38.2324" x="250.9683" y="255.4824">stored</text><text fill="#000000" font-family="sans-serif" font-size="12" lengthAdjust="spacing" textLength="3.8145" x="289.2007" y="255.4824">&#160;</text><text fill="#000000" font-family="sans-serif" font-size="12" lengthAdjust="spacing" textLength="68.2793" x="293.0151" y="255.4824">Credentials</text><polygon fill="#F1F1F1" points="209.7976,288.3125,398.6506,288.3125,410.6506,300.3125,398.6506,312.3125,209.7976,312.3125,197.7976,300.3125,209.7976,288.3125" style="stroke:#181818;stroke-width:0.5;"/><text fill="#666666" font-family="sans-serif" font-size="12" lengthAdjust="spacing" textLength="20.7363" x="308.2241" y="323.4512">yes</text><text fill="#000000" font-family="sans-serif" font-size="11" lengthAdjust="spacing" textLength="56.8584" x="209.7976" y="304.1206">Credential</text><text fill="#000000" font-family="sans-serif" font-size="11" lengthAdjust="spacing" textLength="3.4966" x="266.656" y="304.1206">&#160;</text><text fill="#000000" font-family="sans-serif" font-size="11" lengthAdjust="spacing" textLength="35.0518" x="270.1526" y="304.1206">Status</text><text fill="#000000" font-family="sans-serif" font-size="11" lengthAdjust="spacing" textLength="3.4966" x="305.2043" y="304.1206">&#160;</text><text fill="#000000" font-family="sans-serif" font-size="11" lengthAdjust="spacing" textLength="10.0278" x="308.7009" y="304.1206">in</text><text fill="#000000" font-family="sans-serif" font-size="11" lengthAdjust="spacing" textLength="3.4966" x="318.7288" y="304.1206">&#160;</text><text fill="#000000" font-family="sans-serif" font-size="11" lengthAdjust="spacing" textLength="35.2935" x="322.2253" y="304.1206">[0x03,</text><text fill="#000000" font-family="sans-serif" font-size="11" lengthAdjust="spacing" textLength="3.4966" x="357.5188" y="304.1206">&#160;</text><text fill="#000000" font-family="sans-serif" font-size="11" lengthAdjust="spacing" textLength="37.6353" x="361.0154" y="304.1206">0x04]?</text><text fill="#666666" font-family="sans-serif" font-size="12" lengthAdjust="spacing" textLength="14.9473" x="410.6506" y="297.4824">no</text><ellipse cx="447.5979" cy="300.3125" fill="none" rx="11" ry="11" style="stroke:#222222;stroke-width:1;"/><ellipse cx="447.5979" cy="300.3125" fill="#222222" rx="6" ry="6" style="stroke:#222222;stroke-width:1;"/><path d="M720.0168,224.2109 L720.0168,240.3438 L700.0168,244.3438 L720.0168,248.3438 L720.0168,264.4766 A0,0 0 0 0 720.0168,264.4766 L896.1091,264.4766 A0,0 0 0 0 896.1091,264.4766 L896.1091,234.2109 L886.1091,224.2109 L720.0168,224.2109 A0,0 0 0 0 720.0168,224.2109" fill="#FEFFDD" style="stroke:#181818;stroke-width:0.5;"/><path d="M886.1091,224.2109 L886.1091,234.2109 L896.1091,234.2109 L886.1091,224.2109" fill="#FEFFDD" style="stroke:#181818;stroke-width:0.5;"/><text fill="#000000" font-family="sans-serif" font-size="13" lengthAdjust="spacing" textLength="58.7285" x="726.7817" y="241.2778">Required</text><text fill="#000000" font-family="sans-serif" font-size="13" lengthAdjust="spacing" textLength="4.1323" x="785.5103" y="241.2778">&#160;</text><text fill="#000000" font-family="sans-serif" font-size="13" lengthAdjust="spacing" textLength="35.1089" x="789.6426" y="241.2778">when</text><text fill="#000000" font-family="sans-serif" font-size="13" lengthAdjust="spacing" textLength="4.1323" x="824.7515" y="241.2778">&#160;</text><text fill="#000000" font-family="sans-serif" font-size="13" lengthAdjust="spacing" textLength="16.1929" x="828.8838" y="241.2778">no</text><text fill="#000000" font-family="sans-serif" font-size="13" lengthAdjust="spacing" textLength="4.1323" x="845.0767" y="241.2778">&#160;</text><text fill="#000000" font-family="sans-serif" font-size="13" lengthAdjust="spacing" textLength="31.1353" x="849.209" y="241.2778">valid</text><text fill="#000000" font-family="sans-serif" font-size="13" lengthAdjust="spacing" textLength="41.4248" x="726.0168" y="256.4106">Status</text><text fill="#000000" font-family="sans-serif" font-size="13" lengthAdjust="spacing" textLength="4.1323" x="767.4417" y="256.4106">&#160;</text><text fill="#000000" font-family="sans-serif" font-size="13" lengthAdjust="spacing" textLength="67.4565" x="771.574" y="256.4106">Assertions</text><text fill="#000000" font-family="sans-serif" font-size="13" lengthAdjust="spacing" textLength="4.1323" x="839.0305" y="256.4106">&#160;</text><text fill="#000000" font-family="sans-serif" font-size="13" lengthAdjust="spacing" textLength="37.9463" x="843.1628" y="256.4106">exists</text><rect fill="#F1F1F1" height="47.9375" rx="12.5" ry="12.5" style="stroke:#181818;stroke-width:0.5;" width="199.0098" x="501.0071" y="220.375"/><text fill="#000000" font-family="sans-serif" font-size="12" lengthAdjust="spacing" textLength="50.5605" x="511.0071" y="241.5137">Retrieve</text><text fill="#000000" font-family="sans-serif" font-size="12" lengthAdjust="spacing" textLength="3.8145" x="561.5676" y="241.5137">&#160;</text><text fill="#000000" font-family="sans-serif" font-size="12" lengthAdjust="spacing" textLength="38.2383" x="565.3821" y="241.5137">Status</text><text fill="#000000" font-family="sans-serif" font-size="12" lengthAdjust="spacing" textLength="3.8145" x="603.6204" y="241.5137">&#160;</text><text fill="#000000" font-family="sans-serif" font-size="12" lengthAdjust="spacing" textLength="62.2676" x="607.4348" y="241.5137">Assertions</text><text fill="#000000" font-family="sans-serif" font-size="12" lengthAdjust="spacing" textLength="3.8145" x="669.7024" y="241.5137">&#160;</text><text fill="#000000" font-family="sans-serif" font-size="12" lengthAdjust="spacing" textLength="16.5" x="673.5168" y="241.5137">for</text><text fill="#000000" font-family="sans-serif" font-size="12" lengthAdjust="spacing" textLength="38.2324" x="545.3489" y="255.4824">stored</text><text fill="#000000" font-family="sans-serif" font-size="12" lengthAdjust="spacing" textLength="3.8145" x="583.5813" y="255.4824">&#160;</text><text fill="#000000" font-family="sans-serif" font-size="12" lengthAdjust="spacing" textLength="68.2793" x="587.3958" y="255.4824">Credentials</text><polygon fill="#F1F1F1" points="512.5979,337.2969,688.426,337.2969,700.426,356.5039,688.426,375.7109,512.5979,375.7109,500.5979,356.5039,512.5979,337.2969" style="stroke:#181818;stroke-width:0.5;"/><text fill="#666666" font-family="sans-serif" font-size="12" lengthAdjust="spacing" textLength="20.7363" x="604.512" y="386.8496">yes</text><text fill="#000000" font-family="sans-serif" font-size="11" lengthAdjust="spacing" textLength="162.3037" x="512.5979" y="347.5073">credential_status_detail.state</text><text fill="#000000" font-family="sans-serif" font-size="11" lengthAdjust="spacing" textLength="3.4966" x="674.9016" y="347.5073">&#160;</text><text fill="#000000" font-family="sans-serif" font-size="11" lengthAdjust="spacing" textLength="10.0278" x="678.3982" y="347.5073">in</text><text fill="#000000" font-family="sans-serif" font-size="11" lengthAdjust="spacing" textLength="27.9727" x="560.457" y="360.312">&#160;&#160;&#160;&#160;&#160;&#160;&#160;&#160;</text><text fill="#000000" font-family="sans-serif" font-size="11" lengthAdjust="spacing" textLength="52.1372" x="588.4297" y="360.312">[UPDATE,</text><text fill="#000000" font-family="sans-serif" font-size="11" lengthAdjust="spacing" textLength="121.0967" x="539.9636" y="373.1167">ATTRIBUTE_UPDATE]?</text><text fill="#666666" font-family="sans-serif" font-size="12" lengthAdjust="spacing" textLength="14.9473" x="700.426" y="353.6738">no</text><ellipse cx="737.3733" cy="356.5039" fill="none" rx="11" ry="11" style="stroke:#222222;stroke-width:1;"/><ellipse cx="737.3733" cy="356.5039" fill="#222222" rx="6" ry="6" style="stroke:#222222;stroke-width:1;"/><polygon fill="#F1F1F1" points="519.6018,288.3125,681.4221,288.3125,693.4221,300.3125,681.4221,312.3125,519.6018,312.3125,507.6018,300.3125,519.6018,288.3125" style="stroke:#181818;stroke-width:0.5;"/><text fill="#666666" font-family="sans-serif" font-size="12" lengthAdjust="spacing" textLength="20.7363" x="604.512" y="323.4512">yes</text><text fill="#000000" font-family="sans-serif" font-size="11" lengthAdjust="spacing" textLength="56.8584" x="519.6018" y="304.1206">Credential</text><text fill="#000000" font-family="sans-serif" font-size="11" lengthAdjust="spacing" textLength="3.4966" x="576.4602" y="304.1206">&#160;</text><text fill="#000000" font-family="sans-serif" font-size="11" lengthAdjust="spacing" textLength="35.0518" x="579.9568" y="304.1206">Status</text><text fill="#000000" font-family="sans-serif" font-size="11" lengthAdjust="spacing" textLength="3.4966" x="615.0085" y="304.1206">&#160;</text><text fill="#000000" font-family="sans-serif" font-size="11" lengthAdjust="spacing" textLength="9.2168" x="618.5051" y="304.1206">=</text><text fill="#000000" font-family="sans-serif" font-size="11" lengthAdjust="spacing" textLength="3.4966" x="627.7219" y="304.1206">&#160;</text><text fill="#000000" font-family="sans-serif" font-size="11" lengthAdjust="spacing" textLength="50.2036" x="631.2185" y="304.1206">INVALID?</text><text fill="#666666" font-family="sans-serif" font-size="12" lengthAdjust="spacing" textLength="14.9473" x="693.4221" y="297.4824">no</text><ellipse cx="730.3694" cy="300.3125" fill="none" rx="11" ry="11" style="stroke:#222222;stroke-width:1;"/><ellipse cx="730.3694" cy="300.3125" fill="#222222" rx="6" ry="6" style="stroke:#222222;stroke-width:1;"/><polygon fill="#F1F1F1" points="452.368,398.3496,464.368,410.3496,452.368,422.3496,440.368,410.3496,452.368,398.3496" style="stroke:#181818;stroke-width:0.5;"/><polygon fill="#F1F1F1" points="394.8624,491.334,509.8737,491.334,521.8737,503.334,509.8737,515.334,394.8624,515.334,382.8624,503.334,394.8624,491.334" style="stroke:#181818;stroke-width:0.5;"/><text fill="#000000" font-family="sans-serif" font-size="11" lengthAdjust="spacing" textLength="42.2759" x="394.8624" y="507.1421">Refresh</text><text fill="#000000" font-family="sans-serif" font-size="11" lengthAdjust="spacing" textLength="3.4966" x="437.1383" y="507.1421">&#160;</text><text fill="#000000" font-family="sans-serif" font-size="11" lengthAdjust="spacing" textLength="33.5586" x="440.6349" y="507.1421">Token</text><text fill="#000000" font-family="sans-serif" font-size="11" lengthAdjust="spacing" textLength="3.4966" x="474.1935" y="507.1421">&#160;</text><text fill="#000000" font-family="sans-serif" font-size="11" lengthAdjust="spacing" textLength="32.1836" x="477.6901" y="507.1421">valid?</text><text fill="#666666" font-family="sans-serif" font-size="12" lengthAdjust="spacing" textLength="20.7363" x="362.1261" y="500.5039">yes</text><text fill="#666666" font-family="sans-serif" font-size="12" lengthAdjust="spacing" textLength="14.9473" x="521.8737" y="500.5039">no</text><rect fill="#F1F1F1" height="33.9688" rx="12.5" ry="12.5" style="stroke:#181818;stroke-width:0.5;" width="170.8789" x="200.6556" y="525.334"/><text fill="#000000" font-family="sans-serif" font-size="12" lengthAdjust="spacing" textLength="29.3145" x="210.6556" y="546.4727">Start</text><text fill="#000000" font-family="sans-serif" font-size="12" lengthAdjust="spacing" textLength="3.8145" x="239.9701" y="546.4727">&#160;</text><text fill="#000000" font-family="sans-serif" font-size="12" lengthAdjust="spacing" textLength="46.1191" x="243.7845" y="546.4727">Refresh</text><text fill="#000000" font-family="sans-serif" font-size="12" lengthAdjust="spacing" textLength="3.8145" x="289.9037" y="546.4727">&#160;</text><text fill="#000000" font-family="sans-serif" font-size="12" lengthAdjust="spacing" textLength="36.6094" x="293.7181" y="546.4727">Token</text><text fill="#000000" font-family="sans-serif" font-size="12" lengthAdjust="spacing" textLength="3.8145" x="330.3275" y="546.4727">&#160;</text><text fill="#000000" font-family="sans-serif" font-size="12" lengthAdjust="spacing" textLength="27.3926" x="334.142" y="546.4727">Flow</text><path d="M391.5345,525.334 L391.5345,565.5996 A0,0 0 0 0 391.5345,565.5996 L587.641,565.5996 A0,0 0 0 0 587.641,565.5996 L587.641,549.4668 L607.641,545.4668 L587.641,541.4668 L587.641,535.334 L577.641,525.334 L391.5345,525.334 A0,0 0 0 0 391.5345,525.334" fill="#FEFFDD" style="stroke:#181818;stroke-width:0.5;"/><path d="M577.641,525.334 L577.641,535.334 L587.641,535.334 L577.641,525.334" fill="#FEFFDD" style="stroke:#181818;stroke-width:0.5;"/><text fill="#000000" font-family="sans-serif" font-size="13" lengthAdjust="spacing" textLength="31.7573" x="397.5345" y="542.4009">Start</text><text fill="#000000" font-family="sans-serif" font-size="13" lengthAdjust="spacing" textLength="4.1323" x="429.2919" y="542.4009">&#160;</text><text fill="#000000" font-family="sans-serif" font-size="13" lengthAdjust="spacing" textLength="16.2056" x="433.4242" y="542.4009">an</text><text fill="#000000" font-family="sans-serif" font-size="13" lengthAdjust="spacing" textLength="4.1323" x="449.6298" y="542.4009">&#160;</text><text fill="#000000" font-family="sans-serif" font-size="13" lengthAdjust="spacing" textLength="26.8696" x="453.7621" y="542.4009">new</text><text fill="#000000" font-family="sans-serif" font-size="13" lengthAdjust="spacing" textLength="4.1323" x="480.6317" y="542.4009">&#160;</text><text fill="#000000" font-family="sans-serif" font-size="13" lengthAdjust="spacing" textLength="56.9702" x="484.764" y="542.4009">Issuance</text><text fill="#000000" font-family="sans-serif" font-size="13" lengthAdjust="spacing" textLength="4.1323" x="541.7343" y="542.4009">&#160;</text><text fill="#000000" font-family="sans-serif" font-size="13" lengthAdjust="spacing" textLength="26.7744" x="545.8666" y="542.4009">flow</text><text fill="#000000" font-family="sans-serif" font-size="13" lengthAdjust="spacing" textLength="27.5806" x="399.4611" y="557.5337">with</text><text fill="#000000" font-family="sans-serif" font-size="13" lengthAdjust="spacing" textLength="4.1323" x="427.0416" y="557.5337">&#160;</text><text fill="#000000" font-family="sans-serif" font-size="13" lengthAdjust="spacing" textLength="39.9775" x="431.174" y="557.5337">User's</text><text fill="#000000" font-family="sans-serif" font-size="13" lengthAdjust="spacing" textLength="4.1323" x="471.1515" y="557.5337">&#160;</text><text fill="#000000" font-family="sans-serif" font-size="13" lengthAdjust="spacing" textLength="95.4307" x="475.2838" y="557.5337">Authentication</text><ellipse cx="618.641" cy="545.4668" fill="none" rx="11" ry="11" style="stroke:#222222;stroke-width:1;"/><ellipse cx="618.641" cy="545.4668" fill="#222222" rx="6" ry="6" style="stroke:#222222;stroke-width:1;"/><polygon fill="#F1F1F1" points="397.0753,442.3496,507.6608,442.3496,519.6608,454.3496,507.6608,466.3496,397.0753,466.3496,385.0753,454.3496,397.0753,442.3496" style="stroke:#181818;stroke-width:0.5;"/><text fill="#666666" font-family="sans-serif" font-size="12" lengthAdjust="spacing" textLength="14.9473" x="456.368" y="477.4883">no</text><text fill="#000000" font-family="sans-serif" font-size="11" lengthAdjust="spacing" textLength="37.8501" x="397.0753" y="458.1577">Access</text><text fill="#000000" font-family="sans-serif" font-size="11" lengthAdjust="spacing" textLength="3.4966" x="434.9254" y="458.1577">&#160;</text><text fill="#000000" font-family="sans-serif" font-size="11" lengthAdjust="spacing" textLength="33.5586" x="438.422" y="458.1577">Token</text><text fill="#000000" font-family="sans-serif" font-size="11" lengthAdjust="spacing" textLength="3.4966" x="471.9806" y="458.1577">&#160;</text><text fill="#000000" font-family="sans-serif" font-size="11" lengthAdjust="spacing" textLength="32.1836" x="475.4772" y="458.1577">valid?</text><text fill="#666666" font-family="sans-serif" font-size="12" lengthAdjust="spacing" textLength="20.7363" x="519.6608" y="451.5195">yes</text><polygon fill="#F1F1F1" points="452.368,585.5996,464.368,597.5996,452.368,609.5996,440.368,597.5996,452.368,585.5996" style="stroke:#181818;stroke-width:0.5;"/><rect fill="#F1F1F1" height="61.9063" rx="12.5" ry="12.5" style="stroke:#181818;stroke-width:0.5;" width="178.6777" x="363.0292" y="629.5996"/><text fill="#000000" font-family="sans-serif" font-size="12" lengthAdjust="spacing" textLength="22.418" x="373.0292" y="650.7383">Use</text><text fill="#000000" font-family="sans-serif" font-size="12" lengthAdjust="spacing" textLength="3.8145" x="395.4471" y="650.7383">&#160;</text><text fill="#000000" font-family="sans-serif" font-size="12" lengthAdjust="spacing" textLength="31.0547" x="399.2616" y="650.7383">DPoP</text><text fill="#000000" font-family="sans-serif" font-size="12" lengthAdjust="spacing" textLength="3.8145" x="430.3163" y="650.7383">&#160;</text><text fill="#000000" font-family="sans-serif" font-size="12" lengthAdjust="spacing" textLength="41.291" x="434.1307" y="650.7383">Access</text><text fill="#000000" font-family="sans-serif" font-size="12" lengthAdjust="spacing" textLength="3.8145" x="475.4218" y="650.7383">&#160;</text><text fill="#000000" font-family="sans-serif" font-size="12" lengthAdjust="spacing" textLength="36.6094" x="479.2362" y="650.7383">Token</text><text fill="#000000" font-family="sans-serif" font-size="12" lengthAdjust="spacing" textLength="3.8145" x="515.8456" y="650.7383">&#160;</text><text fill="#000000" font-family="sans-serif" font-size="12" lengthAdjust="spacing" textLength="12.0469" x="519.66" y="650.7383">to</text><text fill="#000000" font-family="sans-serif" font-size="12" lengthAdjust="spacing" textLength="47.1563" x="428.7899" y="664.707">retrieve</text><text fill="#000000" font-family="sans-serif" font-size="12" lengthAdjust="spacing" textLength="24.8027" x="385.6796" y="678.6758">new</text><text fill="#000000" font-family="sans-serif" font-size="12" lengthAdjust="spacing" textLength="3.8145" x="410.4823" y="678.6758">&#160;</text><text fill="#000000" font-family="sans-serif" font-size="12" lengthAdjust="spacing" textLength="38.918" x="414.2968" y="678.6758">Digital</text><text fill="#000000" font-family="sans-serif" font-size="12" lengthAdjust="spacing" textLength="3.8145" x="453.2147" y="678.6758">&#160;</text><text fill="#000000" font-family="sans-serif" font-size="12" lengthAdjust="spacing" textLength="62.0273" x="457.0292" y="678.6758">Credential</text><polygon fill="#F1F1F1" points="364.8595,711.5059,539.8766,711.5059,551.8766,730.7129,539.8766,749.9199,364.8595,749.9199,352.8595,730.7129,364.8595,711.5059" style="stroke:#181818;stroke-width:0.5;"/><text fill="#000000" font-family="sans-serif" font-size="11" lengthAdjust="spacing" textLength="56.8584" x="374.3099" y="721.7163">Credential</text><text fill="#000000" font-family="sans-serif" font-size="11" lengthAdjust="spacing" textLength="3.4966" x="431.1683" y="721.7163">&#160;</text><text fill="#000000" font-family="sans-serif" font-size="11" lengthAdjust="spacing" textLength="33.8003" x="434.6649" y="721.7163">status</text><text fill="#000000" font-family="sans-serif" font-size="11" lengthAdjust="spacing" textLength="3.4966" x="468.4652" y="721.7163">&#160;</text><text fill="#000000" font-family="sans-serif" font-size="11" lengthAdjust="spacing" textLength="9.2168" x="471.9618" y="721.7163">=</text><text fill="#000000" font-family="sans-serif" font-size="11" lengthAdjust="spacing" textLength="3.4966" x="481.1786" y="721.7163">&#160;</text><text fill="#000000" font-family="sans-serif" font-size="11" lengthAdjust="spacing" textLength="31.002" x="484.6752" y="721.7163">0x04,</text><text fill="#000000" font-family="sans-serif" font-size="11" lengthAdjust="spacing" textLength="3.4966" x="515.6771" y="721.7163">&#160;</text><text fill="#000000" font-family="sans-serif" font-size="11" lengthAdjust="spacing" textLength="11.2524" x="519.1737" y="721.7163">or</text><text fill="#000000" font-family="sans-serif" font-size="11" lengthAdjust="spacing" textLength="162.3037" x="364.8595" y="734.521">credential_status_detail.state</text><text fill="#000000" font-family="sans-serif" font-size="11" lengthAdjust="spacing" textLength="3.4966" x="527.1632" y="734.521">&#160;</text><text fill="#000000" font-family="sans-serif" font-size="11" lengthAdjust="spacing" textLength="9.2168" x="530.6598" y="734.521">=</text><text fill="#000000" font-family="sans-serif" font-size="11" lengthAdjust="spacing" textLength="116.8052" x="393.9655" y="747.3257">ATTRIBUTE_UPDATE?</text><text fill="#666666" font-family="sans-serif" font-size="12" lengthAdjust="spacing" textLength="20.7363" x="332.1232" y="727.8828">yes</text><text fill="#666666" font-family="sans-serif" font-size="12" lengthAdjust="spacing" textLength="14.9473" x="551.8766" y="727.8828">no</text><rect fill="#F1F1F1" height="33.9688" rx="12.5" ry="12.5" style="stroke:#181818;stroke-width:0.5;" width="184.6367" x="241.8563" y="759.9199"/><text fill="#000000" font-family="sans-serif" font-size="12" lengthAdjust="spacing" textLength="49.2832" x="251.8563" y="781.0586">Request</text><text fill="#000000" font-family="sans-serif" font-size="12" lengthAdjust="spacing" textLength="3.8145" x="301.1395" y="781.0586">&#160;</text><text fill="#000000" font-family="sans-serif" font-size="12" lengthAdjust="spacing" textLength="27.3516" x="304.954" y="781.0586">User</text><text fill="#000000" font-family="sans-serif" font-size="12" lengthAdjust="spacing" textLength="3.8145" x="332.3055" y="781.0586">&#160;</text><text fill="#000000" font-family="sans-serif" font-size="12" lengthAdjust="spacing" textLength="80.373" x="336.12" y="781.0586">Authorization</text><rect fill="#F1F1F1" height="33.9688" rx="12.5" ry="12.5" style="stroke:#181818;stroke-width:0.5;" width="146.4395" x="260.955" y="862.873"/><text fill="#000000" font-family="sans-serif" font-size="12" lengthAdjust="spacing" textLength="31.9805" x="270.955" y="884.0117">Store</text><text fill="#000000" font-family="sans-serif" font-size="12" lengthAdjust="spacing" textLength="3.8145" x="302.9354" y="884.0117">&#160;</text><text fill="#000000" font-family="sans-serif" font-size="12" lengthAdjust="spacing" textLength="24.8027" x="306.7499" y="884.0117">new</text><text fill="#000000" font-family="sans-serif" font-size="12" lengthAdjust="spacing" textLength="3.8145" x="331.5526" y="884.0117">&#160;</text><text fill="#000000" font-family="sans-serif" font-size="12" lengthAdjust="spacing" textLength="62.0273" x="335.3671" y="884.0117">Credential</text><polygon fill="#F1F1F1" points="287.7899,813.8887,380.5594,813.8887,392.5594,825.8887,380.5594,837.8887,287.7899,837.8887,275.7899,825.8887,287.7899,813.8887" style="stroke:#181818;stroke-width:0.5;"/><text fill="#666666" font-family="sans-serif" font-size="12" lengthAdjust="spacing" textLength="20.7363" x="338.1747" y="849.0273">yes</text><text fill="#000000" font-family="sans-serif" font-size="11" lengthAdjust="spacing" textLength="25.0723" x="287.7899" y="829.6968">User</text><text fill="#000000" font-family="sans-serif" font-size="11" lengthAdjust="spacing" textLength="3.4966" x="312.8622" y="829.6968">&#160;</text><text fill="#000000" font-family="sans-serif" font-size="11" lengthAdjust="spacing" textLength="64.2007" x="316.3588" y="829.6968">Authorizes?</text><text fill="#666666" font-family="sans-serif" font-size="12" lengthAdjust="spacing" textLength="14.9473" x="392.5594" y="823.0586">no</text><ellipse cx="429.5067" cy="825.8887" fill="none" rx="11" ry="11" style="stroke:#222222;stroke-width:1;"/><ellipse cx="429.5067" cy="825.8887" fill="#222222" rx="6" ry="6" style="stroke:#222222;stroke-width:1;"/><rect fill="#F1F1F1" height="33.9688" rx="12.5" ry="12.5" style="stroke:#181818;stroke-width:0.5;" width="146.4395" x="497.3417" y="759.9199"/><text fill="#000000" font-family="sans-serif" font-size="12" lengthAdjust="spacing" textLength="31.9805" x="507.3417" y="781.0586">Store</text><text fill="#000000" font-family="sans-serif" font-size="12" lengthAdjust="spacing" textLength="3.8145" x="539.3221" y="781.0586">&#160;</text><text fill="#000000" font-family="sans-serif" font-size="12" lengthAdjust="spacing" textLength="24.8027" x="543.1366" y="781.0586">new</text><text fill="#000000" font-family="sans-serif" font-size="12" lengthAdjust="spacing" textLength="3.8145" x="567.9393" y="781.0586">&#160;</text><text fill="#000000" font-family="sans-serif" font-size="12" lengthAdjust="spacing" textLength="62.0273" x="571.7538" y="781.0586">Credential</text><polygon fill="#F1F1F1" points="452.368,906.8418,464.368,918.8418,452.368,930.8418,440.368,918.8418,452.368,906.8418" style="stroke:#181818;stroke-width:0.5;"/><rect fill="#F1F1F1" height="33.9688" rx="12.5" ry="12.5" style="stroke:#181818;stroke-width:0.5;" width="180.6523" x="362.0419" y="950.8418"/><text fill="#000000" font-family="sans-serif" font-size="12" lengthAdjust="spacing" textLength="39.4277" x="372.0419" y="971.9805">Delete</text><text fill="#000000" font-family="sans-serif" font-size="12" lengthAdjust="spacing" textLength="3.8145" x="411.4696" y="971.9805">&#160;</text><text fill="#000000" font-family="sans-serif" font-size="12" lengthAdjust="spacing" textLength="51.5684" x="415.2841" y="971.9805">previous</text><text fill="#000000" font-family="sans-serif" font-size="12" lengthAdjust="spacing" textLength="3.8145" x="466.8524" y="971.9805">&#160;</text><text fill="#000000" font-family="sans-serif" font-size="12" lengthAdjust="spacing" textLength="62.0273" x="470.6669" y="971.9805">Credential</text><ellipse cx="452.368" cy="1015.8105" fill="none" rx="11" ry="11" style="stroke:#222222;stroke-width:1;"/><ellipse cx="452.368" cy="1015.8105" fill="#222222" rx="6" ry="6" style="stroke:#222222;stroke-width:1;"/><line style="stroke:#666666;stroke-width:1;" x1="452.368" x2="452.368" y1="70.3984" y2="130.7969"/><polygon fill="#666666" points="448.368,120.7969,452.368,130.7969,456.368,120.7969,452.368,124.7969" style="stroke:#666666;stroke-width:1;"/><line style="stroke:#666666;stroke-width:1;" x1="304.2241" x2="304.2241" y1="312.3125" y2="410.3496"/><line style="stroke:#666666;stroke-width:1;" x1="304.2241" x2="440.368" y1="410.3496" y2="410.3496"/><polygon fill="#666666" points="430.368,406.3496,440.368,410.3496,430.368,414.3496,434.368,410.3496" style="stroke:#666666;stroke-width:1;"/><line style="stroke:#666666;stroke-width:1;" x1="410.6506" x2="436.5979" y1="300.3125" y2="300.3125"/><polygon fill="#666666" points="426.5979,296.3125,436.5979,300.3125,426.5979,304.3125,430.5979,300.3125" style="stroke:#666666;stroke-width:1;"/><line style="stroke:#666666;stroke-width:1;" x1="304.2241" x2="304.2241" y1="268.3125" y2="288.3125"/><polygon fill="#666666" points="300.2241,278.3125,304.2241,288.3125,308.2241,278.3125,304.2241,282.3125" style="stroke:#666666;stroke-width:1;"/><line style="stroke:#666666;stroke-width:1;" x1="600.512" x2="600.512" y1="375.7109" y2="410.3496"/><line style="stroke:#666666;stroke-width:1;" x1="600.512" x2="464.368" y1="410.3496" y2="410.3496"/><polygon fill="#666666" points="474.368,406.3496,464.368,410.3496,474.368,414.3496,470.368,410.3496" style="stroke:#666666;stroke-width:1;"/><line style="stroke:#666666;stroke-width:1;" x1="700.426" x2="726.3733" y1="356.5039" y2="356.5039"/><polygon fill="#666666" points="716.3733,352.5039,726.3733,356.5039,716.3733,360.5039,720.3733,356.5039" style="stroke:#666666;stroke-width:1;"/><line style="stroke:#666666;stroke-width:1;" x1="600.512" x2="600.512" y1="312.3125" y2="337.2969"/><polygon fill="#666666" points="596.512,327.2969,600.512,337.2969,604.512,327.2969,600.512,331.2969" style="stroke:#666666;stroke-width:1;"/><line style="stroke:#666666;stroke-width:1;" x1="693.4221" x2="719.3694" y1="300.3125" y2="300.3125"/><polygon fill="#666666" points="709.3694,296.3125,719.3694,300.3125,709.3694,304.3125,713.3694,300.3125" style="stroke:#666666;stroke-width:1;"/><line style="stroke:#666666;stroke-width:1;" x1="600.512" x2="600.512" y1="268.3125" y2="288.3125"/><polygon fill="#666666" points="596.512,278.3125,600.512,288.3125,604.512,278.3125,600.512,282.3125" style="stroke:#666666;stroke-width:1;"/><line style="stroke:#666666;stroke-width:1;" x1="376.0062" x2="304.2241" y1="197.5703" y2="197.5703"/><line style="stroke:#666666;stroke-width:1;" x1="304.2241" x2="304.2241" y1="197.5703" y2="220.375"/><polygon fill="#666666" points="300.2241,210.375,304.2241,220.375,308.2241,210.375,304.2241,214.375" style="stroke:#666666;stroke-width:1;"/><line style="stroke:#666666;stroke-width:1;" x1="528.7299" x2="600.512" y1="197.5703" y2="197.5703"/><line style="stroke:#666666;stroke-width:1;" x1="600.512" x2="600.512" y1="197.5703" y2="220.375"/><polygon fill="#666666" points="596.512,210.375,600.512,220.375,604.512,210.375,600.512,214.375" style="stroke:#666666;stroke-width:1;"/><line style="stroke:#666666;stroke-width:1;" x1="452.368" x2="452.368" y1="164.7656" y2="184.7656"/><polygon fill="#666666" points="448.368,174.7656,452.368,184.7656,456.368,174.7656,452.368,178.7656" style="stroke:#666666;stroke-width:1;"/><line style="stroke:#666666;stroke-width:1;" x1="382.8624" x2="286.0951" y1="503.334" y2="503.334"/><line style="stroke:#666666;stroke-width:1;" x1="286.0951" x2="286.0951" y1="503.334" y2="525.334"/><polygon fill="#666666" points="282.0951,515.334,286.0951,525.334,290.0951,515.334,286.0951,519.334" style="stroke:#666666;stroke-width:1;"/><line style="stroke:#666666;stroke-width:1;" x1="521.8737" x2="618.641" y1="503.334" y2="503.334"/><line style="stroke:#666666;stroke-width:1;" x1="618.641" x2="618.641" y1="503.334" y2="534.4668"/><polygon fill="#666666" points="614.641,524.4668,618.641,534.4668,622.641,524.4668,618.641,528.4668" style="stroke:#666666;stroke-width:1;"/><line style="stroke:#666666;stroke-width:1;" x1="286.0951" x2="286.0951" y1="559.3027" y2="570.5996"/><line style="stroke:#666666;stroke-width:1;" x1="286.0951" x2="452.368" y1="570.5996" y2="570.5996"/><line style="stroke:#666666;stroke-width:1;" x1="452.368" x2="452.368" y1="570.5996" y2="585.5996"/><polygon fill="#666666" points="448.368,575.5996,452.368,585.5996,456.368,575.5996,452.368,579.5996" style="stroke:#666666;stroke-width:1;"/><line style="stroke:#666666;stroke-width:1;" x1="452.368" x2="452.368" y1="466.3496" y2="491.334"/><polygon fill="#666666" points="448.368,481.334,452.368,491.334,456.368,481.334,452.368,485.334" style="stroke:#666666;stroke-width:1;"/><line style="stroke:#666666;stroke-width:1;" x1="519.6608" x2="649.641" y1="454.3496" y2="454.3496"/><polygon fill="#666666" points="645.641,521.4668,649.641,531.4668,653.641,521.4668,649.641,525.4668" style="stroke:#666666;stroke-width:1;"/><line style="stroke:#666666;stroke-width:1;" x1="649.641" x2="649.641" y1="454.3496" y2="597.5996"/><line style="stroke:#666666;stroke-width:1;" x1="649.641" x2="464.368" y1="597.5996" y2="597.5996"/><polygon fill="#666666" points="474.368,593.5996,464.368,597.5996,474.368,601.5996,470.368,597.5996" style="stroke:#666666;stroke-width:1;"/><line style="stroke:#666666;stroke-width:1;" x1="452.368" x2="452.368" y1="422.3496" y2="442.3496"/><polygon fill="#666666" points="448.368,432.3496,452.368,442.3496,456.368,432.3496,452.368,436.3496" style="stroke:#666666;stroke-width:1;"/><line style="stroke:#666666;stroke-width:1;" x1="452.368" x2="452.368" y1="609.5996" y2="629.5996"/><polygon fill="#666666" points="448.368,619.5996,452.368,629.5996,456.368,619.5996,452.368,623.5996" style="stroke:#666666;stroke-width:1;"/><line style="stroke:#666666;stroke-width:1;" x1="334.1747" x2="334.1747" y1="837.8887" y2="862.873"/><polygon fill="#666666" points="330.1747,852.873,334.1747,862.873,338.1747,852.873,334.1747,856.873" style="stroke:#666666;stroke-width:1;"/><line style="stroke:#666666;stroke-width:1;" x1="392.5594" x2="418.5067" y1="825.8887" y2="825.8887"/><polygon fill="#666666" points="408.5067,821.8887,418.5067,825.8887,408.5067,829.8887,412.5067,825.8887" style="stroke:#666666;stroke-width:1;"/><line style="stroke:#666666;stroke-width:1;" x1="334.1747" x2="334.1747" y1="896.8418" y2="918.8418"/><line style="stroke:#666666;stroke-width:1;" x1="334.1747" x2="440.368" y1="918.8418" y2="918.8418"/><polygon fill="#666666" points="430.368,914.8418,440.368,918.8418,430.368,922.8418,434.368,918.8418" style="stroke:#666666;stroke-width:1;"/><line style="stroke:#666666;stroke-width:1;" x1="334.1747" x2="334.1747" y1="793.8887" y2="813.8887"/><polygon fill="#666666" points="330.1747,803.8887,334.1747,813.8887,338.1747,803.8887,334.1747,807.8887" style="stroke:#666666;stroke-width:1;"/><line style="stroke:#666666;stroke-width:1;" x1="352.8595" x2="334.1747" y1="730.7129" y2="730.7129"/><line style="stroke:#666666;stroke-width:1;" x1="334.1747" x2="334.1747" y1="730.7129" y2="759.9199"/><polygon fill="#666666" points="330.1747,749.9199,334.1747,759.9199,338.1747,749.9199,334.1747,753.9199" style="stroke:#666666;stroke-width:1;"/><line style="stroke:#666666;stroke-width:1;" x1="551.8766" x2="570.5614" y1="730.7129" y2="730.7129"/><line style="stroke:#666666;stroke-width:1;" x1="570.5614" x2="570.5614" y1="730.7129" y2="759.9199"/><polygon fill="#666666" points="566.5614,749.9199,570.5614,759.9199,574.5614,749.9199,570.5614,753.9199" style="stroke:#666666;stroke-width:1;"/><line style="stroke:#666666;stroke-width:1;" x1="570.5614" x2="570.5614" y1="793.8887" y2="918.8418"/><line style="stroke:#666666;stroke-width:1;" x1="570.5614" x2="464.368" y1="918.8418" y2="918.8418"/><polygon fill="#666666" points="474.368,914.8418,464.368,918.8418,474.368,922.8418,470.368,918.8418" style="stroke:#666666;stroke-width:1;"/><line style="stroke:#666666;stroke-width:1;" x1="452.368" x2="452.368" y1="691.5059" y2="711.5059"/><polygon fill="#666666" points="448.368,701.5059,452.368,711.5059,456.368,701.5059,452.368,705.5059" style="stroke:#666666;stroke-width:1;"/><line style="stroke:#666666;stroke-width:1;" x1="452.368" x2="452.368" y1="930.8418" y2="950.8418"/><polygon fill="#666666" points="448.368,940.8418,452.368,950.8418,456.368,940.8418,452.368,944.8418" style="stroke:#666666;stroke-width:1;"/><line style="stroke:#666666;stroke-width:1;" x1="452.368" x2="452.368" y1="984.8105" y2="1004.8105"/><polygon fill="#666666" points="448.368,994.8105,452.368,1004.8105,456.368,994.8105,452.368,998.8105" style="stroke:#666666;stroke-width:1;"/><!--SRC=[ZLLTRzem57tFhxXxMYlnKMbz0g69bKv2QYT4OTNKLSWaDyHQOcU-3hJxzRjsW96G0Nw8OkVSh-DpRpv85QP5X91OcrElspLYqrb9cnJBWj24MbbKjXFgh9kdGjaYIzjaerGkktUtxOaxcZy-T3D15WqVBKRlIcGoxEIC37YH5SO6Ibi48rU93PuJL21W93cAIE7EOCGH9Bygn8Z0QbWY57aaB4Oji0aUOiP41Hg2n-4F85GHUsBVCfQXi58hP-qivfmx52JLYW46LzAbXn7emhPrt5uAjkIQiaBj3CD4A8Lf9t1ENRf1qFDUT8wAu5caALeOAwv7XTWF0Xd3rHJNUckVeVCWAOEV2WRmP8Kj21uuC7o-TZafk7f7kWuW083U5AsHkCOASAP_CIpMna60h7Of_okU-lxSSvbYRFrkYhyBwN0R5q9fM8jKHlxJiMjyutVo7_TbkeshvO3ahQ5Ky7BpTlEf1VoyVQsLuPsaX72bz3MK-ztYrFCjGaKo3YhOm6-F61WIi-sefCiOADLq6GK7lfieEC710CRVlWyVngE6whT6uTveGTve4Q4LCksu7JABU_JBV38QpkvRC9pDfkClyzdzeZnvRVP-djuAmnTVH_ci534CGoJQoiJprvoIMyVvLJwNZH4RfEGoVoo69pSbe6hrDTMRVWNO7A_6HxcyH6fdK4OHh17S-4dYMXbYZbD7RdW2-Y7oaSLJkBpjRb3Ke9K-QhYJezt-nOqN64tq12haymGpszROGrs-nmEpNxd10-tIJhkkRrkW3S-aCoeT76do__VLSms7F5JyV7JqQ2F_U7RwZJhPfLZ18vrIXDS4TxyllQdaKtfeK4JjHXeDpqIiTKrlXFn7GCWDhgLckWzj0fV0Nm00]--></g></svg>