<svg width="2085" height="864" viewBox="0 0 2085 864" fill="none" xmlns="http://www.w3.org/2000/svg">
<rect width="2085" height="864" fill="white"/>
<path d="M1385 623H1980V628C1980 639.046 1971.05 648 1960 648H1405C1393.95 648 1385 639.046 1385 628V623Z" fill="#5C6F82"/>
<path d="M745 623H1340V628C1340 639.046 1331.05 648 1320 648H765C753.954 648 745 639.046 745 628V623Z" fill="#5C6F82"/>
<path d="M105 623H700V628C700 639.046 691.046 648 680 648H125C113.954 648 105 639.046 105 628V623Z" fill="#5C6F82"/>
<rect x="1386" y="218" width="593" height="429" rx="19" stroke="#17324D" stroke-width="2"/>
<rect x="746" y="218" width="593" height="429" rx="19" stroke="#17324D" stroke-width="2"/>
<rect x="106" y="218" width="593" height="429" rx="19" stroke="#17324D" stroke-width="2"/>
<path d="M1405 218H1960C1970.49 218 1979 226.507 1979 237V246H1386V237C1386 226.507 1394.51 218 1405 218Z" fill="#17324D" stroke="#17324D" stroke-width="2"/>
<path d="M765 218H1320C1330.49 218 1339 226.507 1339 237V246H746V237C746 226.507 754.507 218 765 218Z" fill="#17324D" stroke="#17324D" stroke-width="2"/>
<path d="M125 218H680C690.493 218 699 226.507 699 237V246H106V237C106 226.507 114.507 218 125 218Z" fill="#17324D" stroke="#17324D" stroke-width="2"/>
<rect x="1387" y="247" width="591" height="40" fill="#5C6F82"/>
<rect x="747" y="247" width="591" height="40" fill="#5C6F82"/>
<rect x="107" y="247" width="591" height="40" fill="#5C6F82"/>
<circle cx="1411" cy="232" r="5" fill="white"/>
<circle cx="771" cy="232" r="5" fill="white"/>
<circle cx="131" cy="232" r="5" fill="white"/>
<circle cx="1428" cy="232" r="5" fill="white"/>
<circle cx="788" cy="232" r="5" fill="white"/>
<circle cx="148" cy="232" r="5" fill="white"/>
<circle cx="1445" cy="232" r="5" fill="white"/>
<circle cx="805" cy="232" r="5" fill="white"/>
<circle cx="165" cy="232" r="5" fill="white"/>
<rect x="1465" y="327" width="130" height="15" rx="7.5" fill="#A3ADB7"/>
<rect x="978" y="327" width="130" height="15" rx="7.5" fill="#A3ADB7"/>
<rect x="338" y="327" width="130" height="15" rx="7.5" fill="#A3ADB7"/>
<rect x="1465" y="377" width="70" height="10" rx="5" fill="#4392E0"/>
<rect x="901" y="436" width="70" height="10" rx="5" fill="#4392E0"/>
<rect x="200" y="396" width="70" height="10" rx="5" fill="#4392E0"/>
<rect x="422" y="396" width="70" height="10" rx="5" fill="#C5C7C9"/>
<rect x="422" y="487" width="70" height="10" rx="5" fill="#C5C7C9"/>
<rect x="200" y="488" width="70" height="10" rx="5" fill="#C5C7C9"/>
<rect x="1465" y="436" width="70" height="10" rx="5" fill="#C5C7C9"/>
<rect x="1465" y="495" width="70" height="10" rx="5" fill="#C5C7C9"/>
<rect x="1465" y="554" width="70" height="10" rx="5" fill="#C5C7C9"/>
<rect x="1465" y="396" width="170" height="10" rx="5" fill="#6AAAEB"/>
<rect x="901" y="465" width="148" height="10" rx="5" fill="#6AAAEB"/>
<rect x="200" y="430" width="50" height="10" rx="5" fill="#6AAAEB"/>
<rect x="422" y="430" width="50" height="10" rx="5" fill="#D9DADB"/>
<rect x="422" y="521" width="50" height="10" rx="5" fill="#D9DADB"/>
<rect x="200" y="521" width="50" height="10" rx="5" fill="#D9DADB"/>
<rect x="901" y="480" width="148" height="10" rx="5" fill="#6AAAEB"/>
<rect x="901" y="495" width="98" height="10" rx="5" fill="#6AAAEB"/>
<rect x="901" y="534" width="70" height="10" rx="5" fill="#6AAAEB"/>
<rect x="1465" y="455" width="170" height="10" rx="5" fill="#D9DADB"/>
<rect x="1465" y="514" width="170" height="10" rx="5" fill="#D9DADB"/>
<rect x="1465" y="573" width="170" height="10" rx="5" fill="#D9DADB"/>
<rect x="1669" y="377" width="100" height="29" rx="5" fill="#0066CC"/>
<rect x="1084" y="524" width="100" height="29" rx="5" fill="#0066CC"/>
<rect x="283" y="396" width="100" height="29" rx="5" fill="#0066CC"/>
<rect x="505" y="396" width="100" height="29" rx="5" fill="#D9DADB"/>
<rect x="505" y="487" width="100" height="29" rx="5" fill="#D9DADB"/>
<rect x="283" y="487" width="100" height="29" rx="5" fill="#D9DADB"/>
<path d="M881 382C881 379.239 883.239 377 886 377H956C958.761 377 961 379.239 961 382V406H881V382Z" fill="#4392E0"/>
<path d="M882 407H1203V578C1203 580.209 1201.21 582 1199 582H886C883.791 582 882 580.209 882 578V407Z" stroke="#4392E0" stroke-width="2"/>
<rect x="186" y="378" width="211" height="79.7891" rx="4" stroke="#6AAAEB" stroke-width="2"/>
<rect x="408" y="378" width="211" height="79.7891" rx="4" stroke="#C5C7C9" stroke-width="2"/>
<rect x="408" y="469" width="211" height="82.5449" rx="4" stroke="#C5C7C9" stroke-width="2"/>
<rect x="186" y="469" width="211" height="82.5449" rx="4" stroke="#C5C7C9" stroke-width="2"/>
<rect x="1669" y="436" width="100" height="29" rx="5" fill="#D9DADB"/>
<path d="M962 382C962 379.239 964.239 377 967 377H1037C1039.76 377 1042 379.239 1042 382V406H962V382Z" fill="#D9DADB"/>
<path d="M1043 382C1043 379.239 1045.24 377 1048 377H1118C1120.76 377 1123 379.239 1123 382V406H1043V382Z" fill="#D9DADB"/>
<path d="M1124 382C1124 379.239 1126.24 377 1129 377H1199C1201.76 377 1204 379.239 1204 382V406H1124V382Z" fill="#D9DADB"/>
<rect x="1669" y="495" width="100" height="29" rx="5" fill="#D9DADB"/>
<rect x="1669" y="554" width="100" height="29" rx="5" fill="#D9DADB"/>
<circle cx="122" cy="123" r="15" fill="#0066CC"/>
<path d="M170.16 138V110.6H174.6V138H170.16ZM177.822 114.56V110.6H197.822V114.56H190.102V138H185.622V114.56H177.822ZM197.974 129.2V125.24H209.934V129.2H197.974ZM212.226 110.6H216.906L220.826 134.16H221.666L226.866 110.68H232.066L237.266 134.16H238.146L242.066 110.6H246.746L241.346 138H234.186L229.466 116.04L224.786 138H217.586L212.226 110.6ZM264.125 124.16V133.28C264.152 133.867 264.299 134.307 264.565 134.6C264.859 134.867 265.299 135.04 265.885 135.12L265.765 138.44C263.472 138.44 261.699 137.947 260.445 136.96C258.312 137.947 256.165 138.44 254.005 138.44C250.032 138.44 248.045 136.32 248.045 132.08C248.045 130.053 248.579 128.587 249.645 127.68C250.739 126.773 252.405 126.227 254.645 126.04L259.805 125.6V124.16C259.805 123.093 259.565 122.347 259.085 121.92C258.632 121.493 257.952 121.28 257.045 121.28C255.339 121.28 253.205 121.387 250.645 121.6L249.365 121.68L249.205 118.6C252.112 117.907 254.779 117.56 257.205 117.56C259.659 117.56 261.419 118.093 262.485 119.16C263.579 120.2 264.125 121.867 264.125 124.16ZM255.165 129.12C253.325 129.28 252.405 130.28 252.405 132.12C252.405 133.96 253.219 134.88 254.845 134.88C256.179 134.88 257.592 134.667 259.085 134.24L259.805 134V128.68L255.165 129.12ZM269.399 138V109.68H273.759V138H269.399ZM279.076 138V109.68H283.436V138H279.076ZM302.753 134.4L303.873 134.28L303.953 137.52C300.913 138.133 298.22 138.44 295.873 138.44C292.913 138.44 290.78 137.627 289.473 136C288.193 134.373 287.553 131.773 287.553 128.2C287.553 121.107 290.446 117.56 296.233 117.56C301.833 117.56 304.633 120.613 304.633 126.72L304.353 129.84H291.953C291.98 131.493 292.34 132.707 293.033 133.48C293.726 134.253 295.02 134.64 296.913 134.64C298.806 134.64 300.753 134.56 302.753 134.4ZM300.353 126.48C300.353 124.507 300.033 123.133 299.393 122.36C298.78 121.56 297.726 121.16 296.233 121.16C294.74 121.16 293.646 121.573 292.953 122.4C292.286 123.227 291.94 124.587 291.913 126.48H300.353ZM319.146 121.72H313.626V130.52C313.626 132.147 313.746 133.227 313.986 133.76C314.226 134.293 314.839 134.56 315.826 134.56L319.106 134.44L319.306 137.92C317.519 138.267 316.159 138.44 315.226 138.44C312.959 138.44 311.399 137.92 310.546 136.88C309.719 135.84 309.306 133.88 309.306 131V121.72H306.746V118H309.306V112.2H313.626V118H319.146V121.72ZM339.191 114.04C335.804 114.04 334.111 115.227 334.111 117.6C334.111 118.827 334.511 119.707 335.311 120.24C336.111 120.747 337.871 121.387 340.591 122.16C343.337 122.907 345.271 123.813 346.391 124.88C347.511 125.92 348.071 127.573 348.071 129.84C348.071 132.72 347.244 134.88 345.591 136.32C343.964 137.733 341.737 138.44 338.911 138.44C336.644 138.44 334.137 138.173 331.391 137.64L329.951 137.36L330.391 133.8C333.991 134.28 336.737 134.52 338.631 134.52C341.937 134.52 343.591 133.053 343.591 130.12C343.591 128.973 343.217 128.133 342.471 127.6C341.724 127.04 340.044 126.44 337.431 125.8C334.817 125.133 332.871 124.227 331.591 123.08C330.311 121.933 329.671 120.12 329.671 117.64C329.671 115.16 330.471 113.293 332.071 112.04C333.697 110.76 335.937 110.12 338.791 110.12C340.844 110.12 343.271 110.36 346.071 110.84L347.471 111.08L347.111 114.68C343.377 114.253 340.737 114.04 339.191 114.04ZM349.757 118H354.037L358.277 134.28H359.357L363.597 118H367.917L360.317 146.6H356.037L358.437 138H354.997L349.757 118ZM384.451 122.12C381.304 121.693 379.024 121.48 377.611 121.48C376.198 121.48 375.211 121.653 374.651 122C374.118 122.32 373.851 122.84 373.851 123.56C373.851 124.28 374.144 124.787 374.731 125.08C375.344 125.373 376.758 125.72 378.971 126.12C381.211 126.493 382.798 127.093 383.731 127.92C384.664 128.747 385.131 130.213 385.131 132.32C385.131 134.427 384.451 135.973 383.091 136.96C381.758 137.947 379.798 138.44 377.211 138.44C375.584 138.44 373.531 138.213 371.051 137.76L369.811 137.56L369.971 133.92C373.171 134.347 375.478 134.56 376.891 134.56C378.304 134.56 379.304 134.387 379.891 134.04C380.504 133.693 380.811 133.12 380.811 132.32C380.811 131.52 380.518 130.973 379.931 130.68C379.371 130.36 377.998 130.027 375.811 129.68C373.651 129.307 372.064 128.733 371.051 127.96C370.038 127.187 369.531 125.773 369.531 123.72C369.531 121.667 370.224 120.133 371.611 119.12C373.024 118.107 374.824 117.6 377.011 117.6C378.718 117.6 380.811 117.813 383.291 118.24L384.531 118.48L384.451 122.12ZM399.641 121.72H394.121V130.52C394.121 132.147 394.241 133.227 394.481 133.76C394.721 134.293 395.334 134.56 396.321 134.56L399.601 134.44L399.801 137.92C398.014 138.267 396.654 138.44 395.721 138.44C393.454 138.44 391.894 137.92 391.041 136.88C390.214 135.84 389.801 133.88 389.801 131V121.72H387.241V118H389.801V112.2H394.121V118H399.641V121.72ZM417.017 134.4L418.137 134.28L418.217 137.52C415.177 138.133 412.484 138.44 410.137 138.44C407.177 138.44 405.044 137.627 403.737 136C402.457 134.373 401.817 131.773 401.817 128.2C401.817 121.107 404.71 117.56 410.497 117.56C416.097 117.56 418.897 120.613 418.897 126.72L418.617 129.84H406.217C406.244 131.493 406.604 132.707 407.297 133.48C407.99 134.253 409.284 134.64 411.177 134.64C413.07 134.64 415.017 134.56 417.017 134.4ZM414.617 126.48C414.617 124.507 414.297 123.133 413.657 122.36C413.044 121.56 411.99 121.16 410.497 121.16C409.004 121.16 407.91 121.573 407.217 122.4C406.55 123.227 406.204 124.587 406.177 126.48H414.617ZM427.009 138H422.649V118H426.969V119.24C428.863 118.12 430.596 117.56 432.169 117.56C434.489 117.56 436.183 118.213 437.249 119.52C439.676 118.213 442.089 117.56 444.489 117.56C446.889 117.56 448.583 118.307 449.569 119.8C450.556 121.267 451.049 123.76 451.049 127.28V138H446.729V127.4C446.729 125.24 446.503 123.707 446.049 122.8C445.623 121.893 444.716 121.44 443.329 121.44C442.129 121.44 440.836 121.707 439.449 122.24L438.769 122.52C438.983 123.053 439.089 124.76 439.089 127.64V138H434.769V127.72C434.769 125.347 434.556 123.707 434.129 122.8C433.703 121.893 432.769 121.44 431.329 121.44C429.996 121.44 428.756 121.707 427.609 122.24L427.009 122.48V138ZM462.234 138L468.994 110.6H477.834L484.634 138H480.154L478.674 132.12H468.154L466.674 138H462.234ZM472.434 114.32L469.034 128.2H477.794L474.434 114.32H472.434ZM499.699 118H504.019V138H499.699V136.76C497.753 137.88 495.953 138.44 494.299 138.44C491.553 138.44 489.713 137.707 488.779 136.24C487.846 134.747 487.379 132.147 487.379 128.44V118H491.739V128.48C491.739 130.88 491.939 132.493 492.339 133.32C492.739 134.147 493.673 134.56 495.139 134.56C496.579 134.56 497.899 134.293 499.099 133.76L499.699 133.52V118ZM519.618 121.72H514.098V130.52C514.098 132.147 514.218 133.227 514.458 133.76C514.698 134.293 515.311 134.56 516.298 134.56L519.578 134.44L519.778 137.92C517.991 138.267 516.631 138.44 515.698 138.44C513.431 138.44 511.871 137.92 511.018 136.88C510.191 135.84 509.778 133.88 509.778 131V121.72H507.218V118H509.778V112.2H514.098V118H519.618V121.72ZM527.114 138H522.754V109.68H527.114V119.04C529.087 118.053 530.914 117.56 532.594 117.56C535.261 117.56 537.074 118.32 538.034 119.84C539.021 121.333 539.514 123.813 539.514 127.28V138H535.154V127.4C535.154 125.24 534.927 123.707 534.474 122.8C534.021 121.893 533.061 121.44 531.594 121.44C530.314 121.44 529.034 121.653 527.754 122.08L527.114 122.32V138ZM558.39 134.4L559.51 134.28L559.59 137.52C556.55 138.133 553.857 138.44 551.51 138.44C548.55 138.44 546.417 137.627 545.11 136C543.83 134.373 543.19 131.773 543.19 128.2C543.19 121.107 546.083 117.56 551.87 117.56C557.47 117.56 560.27 120.613 560.27 126.72L559.99 129.84H547.59C547.617 131.493 547.977 132.707 548.67 133.48C549.363 134.253 550.657 134.64 552.55 134.64C554.443 134.64 556.39 134.56 558.39 134.4ZM555.99 126.48C555.99 124.507 555.67 123.133 555.03 122.36C554.417 121.56 553.363 121.16 551.87 121.16C550.377 121.16 549.283 121.573 548.59 122.4C547.923 123.227 547.577 124.587 547.55 126.48H555.99ZM568.383 138H564.023V118H568.343V119.24C570.289 118.12 572.129 117.56 573.863 117.56C576.529 117.56 578.343 118.32 579.303 119.84C580.289 121.333 580.783 123.813 580.783 127.28V138H576.463V127.4C576.463 125.24 576.223 123.707 575.743 122.8C575.289 121.893 574.343 121.44 572.903 121.44C571.543 121.44 570.236 121.707 568.983 122.24L568.383 122.48V138ZM596.178 121.72H590.658V130.52C590.658 132.147 590.778 133.227 591.018 133.76C591.258 134.293 591.872 134.56 592.858 134.56L596.138 134.44L596.338 137.92C594.552 138.267 593.192 138.44 592.258 138.44C589.992 138.44 588.432 137.92 587.578 136.88C586.752 135.84 586.338 133.88 586.338 131V121.72H583.778V118H586.338V112.2H590.658V118H596.178V121.72ZM599.314 138V118H603.674V138H599.314ZM599.314 114.6V110H603.674V114.6H599.314ZM616.003 117.56C617.416 117.56 619.083 117.747 621.003 118.12L622.003 118.32L621.843 121.76C619.736 121.547 618.176 121.44 617.163 121.44C615.136 121.44 613.776 121.893 613.083 122.8C612.389 123.707 612.043 125.413 612.043 127.92C612.043 130.427 612.376 132.16 613.043 133.12C613.709 134.08 615.096 134.56 617.203 134.56L621.883 134.24L622.003 137.72C619.309 138.2 617.283 138.44 615.923 138.44C612.883 138.44 610.736 137.627 609.483 136C608.256 134.347 607.643 131.653 607.643 127.92C607.643 124.187 608.296 121.533 609.603 119.96C610.909 118.36 613.043 117.56 616.003 117.56ZM640.578 124.16V133.28C640.605 133.867 640.751 134.307 641.018 134.6C641.311 134.867 641.751 135.04 642.338 135.12L642.218 138.44C639.925 138.44 638.151 137.947 636.898 136.96C634.765 137.947 632.618 138.44 630.458 138.44C626.485 138.44 624.498 136.32 624.498 132.08C624.498 130.053 625.031 128.587 626.098 127.68C627.191 126.773 628.858 126.227 631.098 126.04L636.258 125.6V124.16C636.258 123.093 636.018 122.347 635.538 121.92C635.085 121.493 634.405 121.28 633.498 121.28C631.791 121.28 629.658 121.387 627.098 121.6L625.818 121.68L625.658 118.6C628.565 117.907 631.231 117.56 633.658 117.56C636.111 117.56 637.871 118.093 638.938 119.16C640.031 120.2 640.578 121.867 640.578 124.16ZM631.618 129.12C629.778 129.28 628.858 130.28 628.858 132.12C628.858 133.96 629.671 134.88 631.298 134.88C632.631 134.88 634.045 134.667 635.538 134.24L636.258 134V128.68L631.618 129.12ZM656.372 121.72H650.852V130.52C650.852 132.147 650.972 133.227 651.212 133.76C651.452 134.293 652.065 134.56 653.052 134.56L656.332 134.44L656.532 137.92C654.745 138.267 653.385 138.44 652.452 138.44C650.185 138.44 648.625 137.92 647.772 136.88C646.945 135.84 646.532 133.88 646.532 131V121.72H643.972V118H646.532V112.2H650.852V118H656.372V121.72ZM659.507 138V118H663.867V138H659.507ZM659.507 114.6V110H663.867V114.6H659.507ZM669.796 120.16C671.183 118.427 673.476 117.56 676.676 117.56C679.876 117.56 682.156 118.427 683.516 120.16C684.903 121.893 685.596 124.493 685.596 127.96C685.596 131.427 684.929 134.04 683.596 135.8C682.263 137.56 679.956 138.44 676.676 138.44C673.396 138.44 671.089 137.56 669.756 135.8C668.423 134.04 667.756 131.427 667.756 127.96C667.756 124.493 668.436 121.893 669.796 120.16ZM673.076 133.16C673.689 134.227 674.889 134.76 676.676 134.76C678.463 134.76 679.663 134.227 680.276 133.16C680.889 132.093 681.196 130.347 681.196 127.92C681.196 125.493 680.863 123.773 680.196 122.76C679.556 121.747 678.383 121.24 676.676 121.24C674.969 121.24 673.783 121.747 673.116 122.76C672.476 123.773 672.156 125.493 672.156 127.92C672.156 130.347 672.463 132.093 673.076 133.16ZM693.847 138H689.487V118H693.807V119.24C695.754 118.12 697.594 117.56 699.327 117.56C701.994 117.56 703.807 118.32 704.767 119.84C705.754 121.333 706.247 123.813 706.247 127.28V138H701.927V127.4C701.927 125.24 701.687 123.707 701.207 122.8C700.754 121.893 699.807 121.44 698.367 121.44C697.007 121.44 695.7 121.707 694.447 122.24L693.847 122.48V138ZM719.752 110.6H730.152C732.952 110.6 735.045 111.173 736.432 112.32C737.819 113.44 738.512 115.24 738.512 117.72C738.512 119.347 738.245 120.627 737.712 121.56C737.205 122.493 736.392 123.267 735.272 123.88C737.885 124.893 739.192 127.013 739.192 130.24C739.192 135.413 736.285 138 730.472 138H719.752V110.6ZM730.152 126.04H724.192V134.16H730.232C731.699 134.16 732.792 133.853 733.512 133.24C734.259 132.627 734.632 131.573 734.632 130.08C734.632 128.587 734.205 127.547 733.352 126.96C732.499 126.347 731.432 126.04 730.152 126.04ZM729.912 114.44H724.192V122.28H730.072C732.685 122.28 733.992 120.933 733.992 118.24C733.992 115.707 732.632 114.44 729.912 114.44ZM755.404 118H759.724V138H755.404V136.76C753.457 137.88 751.657 138.44 750.004 138.44C747.257 138.44 745.417 137.707 744.484 136.24C743.551 134.747 743.084 132.147 743.084 128.44V118H747.444V128.48C747.444 130.88 747.644 132.493 748.044 133.32C748.444 134.147 749.377 134.56 750.844 134.56C752.284 134.56 753.604 134.293 754.804 133.76L755.404 133.52V118ZM775.323 121.72H769.803V130.52C769.803 132.147 769.923 133.227 770.163 133.76C770.403 134.293 771.016 134.56 772.003 134.56L775.283 134.44L775.483 137.92C773.696 138.267 772.336 138.44 771.403 138.44C769.136 138.44 767.576 137.92 766.723 136.88C765.896 135.84 765.483 133.88 765.483 131V121.72H762.923V118H765.483V112.2H769.803V118H775.323V121.72ZM789.219 121.72H783.699V130.52C783.699 132.147 783.819 133.227 784.059 133.76C784.299 134.293 784.912 134.56 785.899 134.56L789.179 134.44L789.379 137.92C787.592 138.267 786.232 138.44 785.299 138.44C783.032 138.44 781.472 137.92 780.619 136.88C779.792 135.84 779.379 133.88 779.379 131V121.72H776.819V118H779.379V112.2H783.699V118H789.219V121.72ZM793.435 120.16C794.821 118.427 797.115 117.56 800.315 117.56C803.515 117.56 805.795 118.427 807.155 120.16C808.541 121.893 809.235 124.493 809.235 127.96C809.235 131.427 808.568 134.04 807.235 135.8C805.901 137.56 803.595 138.44 800.315 138.44C797.035 138.44 794.728 137.56 793.395 135.8C792.061 134.04 791.395 131.427 791.395 127.96C791.395 124.493 792.075 121.893 793.435 120.16ZM796.715 133.16C797.328 134.227 798.528 134.76 800.315 134.76C802.101 134.76 803.301 134.227 803.915 133.16C804.528 132.093 804.835 130.347 804.835 127.92C804.835 125.493 804.501 123.773 803.835 122.76C803.195 121.747 802.021 121.24 800.315 121.24C798.608 121.24 797.421 121.747 796.755 122.76C796.115 123.773 795.795 125.493 795.795 127.92C795.795 130.347 796.101 132.093 796.715 133.16ZM817.486 138H813.126V118H817.446V119.24C819.392 118.12 821.232 117.56 822.966 117.56C825.632 117.56 827.446 118.32 828.406 119.84C829.392 121.333 829.886 123.813 829.886 127.28V138H825.566V127.4C825.566 125.24 825.326 123.707 824.846 122.8C824.392 121.893 823.446 121.44 822.006 121.44C820.646 121.44 819.339 121.707 818.086 122.24L817.486 122.48V138Z" fill="#17324D"/>
<rect x="107" y="287" width="78" height="336" fill="#EBECED" fill-opacity="0.5"/>
<rect x="746" y="287" width="78" height="336" fill="#EBECED" fill-opacity="0.5"/>
<rect x="1387" y="287" width="78" height="336" fill="#EBECED" fill-opacity="0.5"/>
<rect x="824" y="287" width="59" height="336" fill="#EBECED" fill-opacity="0.25"/>
<rect x="1204" y="287" width="59" height="336" fill="#EBECED" fill-opacity="0.25"/>
<rect x="620" y="287" width="78" height="336" fill="#EBECED" fill-opacity="0.5"/>
<rect x="1263" y="287" width="74" height="336" fill="#EBECED" fill-opacity="0.5"/>
<rect x="1904" y="287" width="74" height="336" fill="#EBECED" fill-opacity="0.5"/>
</svg>
