<svg xmlns="http://www.w3.org/2000/svg" xmlns:xlink="http://www.w3.org/1999/xlink" contentStyleType="text/css" data-diagram-type="STATE" height="482px" preserveAspectRatio="none" style="width:446px;height:482px;background:#FFFFFF;" version="1.1" viewBox="0 0 446 482" width="446px" zoomAndPan="magnify"><defs/><g><rect fill="#FFA500" height="40" rx="12.5" ry="12.5" style="stroke:#181818;stroke-width:0.5;" width="69.6436" x="31.13" y="103"/><text fill="#000000" font-family="sans-serif" font-size="14" lengthAdjust="spacing" textLength="59.6436" x="36.13" y="127.8467">Installed</text><rect fill="#228B22" height="40" rx="12.5" ry="12.5" style="stroke:#181818;stroke-width:0.5;" width="64.1543" x="188.87" y="103"/><text fill="#000000" font-family="sans-serif" font-size="14" lengthAdjust="spacing" textLength="54.1543" x="193.87" y="127.8467">Verified</text><rect fill="#FFFF00" height="40" rx="12.5" ry="12.5" style="stroke:#181818;stroke-width:0.5;" width="81.9824" x="117.96" y="220"/><text fill="#000000" font-family="sans-serif" font-size="14" lengthAdjust="spacing" textLength="71.9824" x="122.96" y="244.8467">Unverified</text><rect fill="#D64545" height="40" rx="12.5" ry="12.5" style="stroke:#181818;stroke-width:0.5;" width="88.5244" x="114.69" y="337"/><text fill="#000000" font-family="sans-serif" font-size="14" lengthAdjust="spacing" textLength="78.5244" x="119.69" y="361.8467">Uninstalled</text><ellipse cx="65.95" cy="16" fill="#222222" rx="10" ry="10" style="stroke:#222222;stroke-width:1;"/><ellipse cx="158.95" cy="465" fill="none" rx="11" ry="11" style="stroke:#222222;stroke-width:1;"/><ellipse cx="158.95" cy="465" fill="#222222" rx="6" ry="6" style="stroke:#222222;stroke-width:1;"/><!--link *start* to Installed--><g class="link" data-entity-1="*start*" data-entity-2="Installed" data-source-line="8" data-uid="lnk3" id="link_*start*_Installed"><path d="M65.95,26.32 C65.95,43.38 65.95,73.98 65.95,96.64" fill="none" id="*start*-to-Installed" style="stroke:#181818;stroke-width:1;"/><polygon fill="#181818" points="65.95,102.64,69.95,93.64,65.95,97.64,61.95,93.64,65.95,102.64" style="stroke:#181818;stroke-width:1;"/><text fill="#000000" font-family="sans-serif" font-size="13" lengthAdjust="spacing" textLength="54.5898" x="66.95" y="69.0669">RPI INST</text></g><!--link Installed to Uninstalled--><g class="link" data-entity-1="Installed" data-entity-2="Uninstalled" data-source-line="9" data-uid="lnk4" id="link_Installed_Uninstalled"><path d="M51.52,143.32 C33.13,170.48 6,221 25.95,260 C44.36,296 77.9145,318.8946 108.9145,334.5546" fill="none" id="Installed-to-Uninstalled" style="stroke:#181818;stroke-width:1;"/><polygon fill="#181818" points="114.27,337.26,108.0404,329.6316,109.8071,335.0055,104.4332,336.7722,114.27,337.26" style="stroke:#181818;stroke-width:1;"/><text fill="#000000" font-family="sans-serif" font-size="13" lengthAdjust="spacing" textLength="73.8296" x="26.95" y="244.5669">RPI UNINST</text></g><!--link Installed to Ready--><g class="link" data-entity-1="Installed" data-entity-2="Ready" data-source-line="10" data-uid="lnk5" id="link_Installed_Ready"><path d="M101.12,123 C127.38,123 156.99,123 182.56,123" fill="none" id="Installed-to-Ready" style="stroke:#181818;stroke-width:1;"/><polygon fill="#181818" points="188.56,123,179.56,119,183.56,123,179.56,127,188.56,123" style="stroke:#181818;stroke-width:1;"/><text fill="#000000" font-family="sans-serif" font-size="13" lengthAdjust="spacing" textLength="52.1587" x="118.82" y="116.0669">RPI REG</text></g><!--reverse link Installed to Ready--><g class="link" data-entity-1="Installed" data-entity-2="Ready" data-source-line="12" data-uid="lnk8" id="link_Installed_Ready"><path d="M106.6892,140.1661 C112.5392,142.1261 112.93,141.92 118.82,143 C141.56,147.16 148.13,147.36 170.82,143 C176.71,141.87 182.79,140.05 188.59,137.97" fill="none" id="Installed-backto-Ready" style="stroke:#181818;stroke-width:1;"/><polygon fill="#181818" points="101,138.26,108.263,144.912,105.741,139.8484,110.8045,137.3264,101,138.26" style="stroke:#181818;stroke-width:1;"/><text fill="#000000" font-family="sans-serif" font-size="13" lengthAdjust="spacing" textLength="50.978" x="119.82" y="139.0669">RPI REV</text></g><!--link Ready to Uninstalled--><g class="link" data-entity-1="Ready" data-entity-2="Uninstalled" data-source-line="11" data-uid="lnk6" id="link_Ready_Uninstalled"><path d="M253.04,131.71 C277.24,138.92 309.93,151.83 331.95,173 C360.78,200.72 376.12,226.06 354.95,260 C321.96,312.89 256.287,336.0938 209.377,346.8938" fill="none" id="Ready-to-Uninstalled" style="stroke:#181818;stroke-width:1;"/><polygon fill="#181818" points="203.53,348.24,213.198,350.1188,208.4025,347.1182,211.4031,342.3227,203.53,348.24" style="stroke:#181818;stroke-width:1;"/><text fill="#000000" font-family="sans-serif" font-size="13" lengthAdjust="spacing" textLength="73.8296" x="364.95" y="244.5669">RPI UNINST</text></g><!--link Ready to Ready--><g class="link" data-entity-1="Ready" data-entity-2="Ready" data-source-line="13" data-uid="lnk9" id="link_Ready_Ready"><path d="M253.39,112.56 C271.42,110.61 288.03,114.09 288.03,123 C288.03,131.91 277.3852,136.0352 259.3552,134.0852" fill="none" id="Ready-to-Ready" style="stroke:#181818;stroke-width:1;"/><polygon fill="#181818" points="253.39,133.44,261.9077,138.3845,258.361,133.9776,262.7679,130.4309,253.39,133.44" style="stroke:#181818;stroke-width:1;"/><text fill="#0000FF" font-family="sans-serif" font-size="13" lengthAdjust="spacing" textLength="101.6577" x="294.03" y="127.5669">PID/(Q)EAA PRE</text></g><!--link Ready to Unverified--><g class="link" data-entity-1="Ready" data-entity-2="Unverified" data-source-line="14" data-uid="lnk10" id="link_Ready_Unverified"><path d="M242.38,143.42 C254.42,156.77 265.33,174.76 255.95,190 C243.69,209.93 226.2143,220.0712 205.6043,227.2712" fill="none" id="Ready-to-Unverified" style="stroke:#181818;stroke-width:1;"/><polygon fill="#181818" points="199.94,229.25,209.7557,230.058,204.6603,227.601,207.1173,222.5056,199.94,229.25" style="stroke:#181818;stroke-width:1;"/><text fill="#000000" font-family="sans-serif" font-size="13" lengthAdjust="spacing" textLength="63.356" x="259.95" y="186.0669">CERT EXP</text></g><!--reverse link Ready to Unverified--><g class="link" data-entity-1="Ready" data-entity-2="Unverified" data-source-line="16" data-uid="lnk13" id="link_Ready_Unverified"><path d="M190.8059,147.5201 C181.7759,155.6701 176.87,161.83 170.95,173 C163.25,187.51 160.4,206.06 159.38,219.79" fill="none" id="Ready-backto-Unverified" style="stroke:#181818;stroke-width:1;"/><polygon fill="#181818" points="195.26,143.5,185.8988,146.5607,191.5482,146.85,191.2589,152.4995,195.26,143.5" style="stroke:#181818;stroke-width:1;"/><text fill="#000000" font-family="sans-serif" font-size="13" lengthAdjust="spacing" textLength="75.9814" x="171.95" y="186.0669">CERT REISS</text></g><!--link Unverified to Uninstalled--><g class="link" data-entity-1="Unverified" data-entity-2="Uninstalled" data-source-line="15" data-uid="lnk11" id="link_Unverified_Uninstalled"><path d="M158.95,260.25 C158.95,281.48 158.95,309.44 158.95,330.69" fill="none" id="Unverified-to-Uninstalled" style="stroke:#181818;stroke-width:1;"/><polygon fill="#181818" points="158.95,336.69,162.95,327.69,158.95,331.69,154.95,327.69,158.95,336.69" style="stroke:#181818;stroke-width:1;"/><text fill="#000000" font-family="sans-serif" font-size="13" lengthAdjust="spacing" textLength="73.8296" x="159.95" y="303.0669">RPI UNINST</text></g><!--link Unverified to Unverified--><g class="link" data-entity-1="Unverified" data-entity-2="Unverified" data-source-line="17" data-uid="lnk14" id="link_Unverified_Unverified"><path d="M200.38,229.2 C218.91,228.17 234.94,231.77 234.94,240 C234.94,248.23 224.9008,252.163 206.3708,251.133" fill="none" id="Unverified-to-Unverified" style="stroke:#181818;stroke-width:1;"/><polygon fill="#181818" points="200.38,250.8,209.1441,255.2933,205.3723,251.0775,209.5881,247.3057,200.38,250.8" style="stroke:#181818;stroke-width:1;"/><text fill="#0000FF" font-family="sans-serif" font-size="13" lengthAdjust="spacing" textLength="108.1577" x="240.94" y="244.5669">PID/(Q)EAA PRE*</text></g><!--reverse link Installed to Unverified--><g class="link" data-entity-1="Installed" data-entity-2="Unverified" data-source-line="18" data-uid="lnk16" id="link_Installed_Unverified"><path d="M68.8847,149.4152 C71.1247,163.4652 74.93,176.35 84.95,190 C93.79,202.05 106.56,212 119,219.72" fill="none" id="Installed-backto-Unverified" style="stroke:#181818;stroke-width:1;"/><polygon fill="#181818" points="67.94,143.49,65.4069,153.0075,68.7272,148.4276,73.3071,151.748,67.94,143.49" style="stroke:#181818;stroke-width:1;"/><text fill="#000000" font-family="sans-serif" font-size="13" lengthAdjust="spacing" textLength="70.3828" x="85.95" y="186.0669">RPI DEREG</text></g><!--link Uninstalled to *end*--><g class="link" data-entity-1="Uninstalled" data-entity-2="*end*" data-source-line="19" data-uid="lnk18" id="link_Uninstalled_*end*"><path d="M158.95,377.44 C158.95,399.91 158.95,430.06 158.95,447.68" fill="none" id="Uninstalled-to-*end*" style="stroke:#181818;stroke-width:1;"/><polygon fill="#181818" points="158.95,453.68,162.95,444.68,158.95,448.68,154.95,444.68,158.95,453.68" style="stroke:#181818;stroke-width:1;"/><text fill="#000000" font-family="sans-serif" font-size="13" lengthAdjust="spacing" textLength="4.1323" x="159.95" y="420.0669">&#160;</text></g><!--SRC=[XP5VQuCm5CNVyoakzMKhY9tKCQG8RgR3b-9YBOEn1zTSru1JqNIZ-_HB_Tzretb9I7uvvt3kJd04_2Za0JXMsr8KKkGP8PMC9OAVgJrDaOEsNBhMRDRUJpPOYaGWdq1S0SEO7q0ppRjxqso9AFji4T0IjVglKIO6KUzsRiqjGbwchw3p_2lJdS7J1XRuuA_2DHboTDH8fk6YrM-o5EyxgT0wNWCn-aYQj9TqMYh5H9vdOdJJ0RtyOfkdUMc_fNjq0jyphfwkgUj2mEZ2g9-SC-Uk8HiUA5i3VGx8gBPB2SVelXY2r5gC-c5uWfmQ_fzssiST__wx1uyU2nrFL5UG6gOogCGtsZUcip2E9-S7]--></g></svg>