<svg xmlns="http://www.w3.org/2000/svg" xmlns:xlink="http://www.w3.org/1999/xlink" contentStyleType="text/css" data-diagram-type="STATE" height="477px" preserveAspectRatio="none" style="width:372px;height:477px;background:#FFFFFF;" version="1.1" viewBox="0 0 372 477" width="372px" zoomAndPan="magnify"><defs/><g><path d="M17,7 L351.8672,7 A10,10 0 0 1 361.8672,17 L361.8672,30.9688 L7,30.9688 L7,17 A10,10 0 0 1 17,7 " fill="#F1F1F1" style="stroke:#F1F1F1;stroke-width:1;"/><rect fill="#FFFFFF" fill-opacity="0.00000" height="353.2688" rx="10" ry="10" style="stroke:#181818;stroke-width:0.5;" width="354.8672" x="7" y="7"/><line style="stroke:#181818;stroke-width:0.5;" x1="7" x2="361.8672" y1="30.9688" y2="30.9688"/><text fill="#000000" font-family="sans-serif" font-size="12" lengthAdjust="spacing" textLength="56.707" x="156.0801" y="23.1387">All States</text><rect fill="#FFA500" height="40" rx="10" ry="10" style="stroke:#181818;stroke-width:0.5;" width="76.6973" x="172.65" y="205.2688"/><text fill="#000000" font-family="sans-serif" font-size="12" lengthAdjust="spacing" textLength="66.6973" x="177.65" y="229.423">Suspended</text><rect fill="#D64545" height="40" rx="10" ry="10" style="stroke:#181818;stroke-width:0.5;" width="62.1133" x="96.94" y="310.2688"/><text fill="#000000" font-family="sans-serif" font-size="12" lengthAdjust="spacing" textLength="52.1133" x="101.94" y="334.423">Revoked</text><rect fill="#D64545" height="40" rx="10" ry="10" style="stroke:#181818;stroke-width:0.5;" width="55.5684" x="200.22" y="310.2688"/><text fill="#000000" font-family="sans-serif" font-size="12" lengthAdjust="spacing" textLength="45.5684" x="205.22" y="334.423">Expired</text><path d="M29,42.9688 L333,42.9688 A10,10 0 0 1 343,52.9688 L343,66.9375 L19,66.9375 L19,52.9688 A10,10 0 0 1 29,42.9688 " fill="#F1F1F1" style="stroke:#F1F1F1;stroke-width:1;"/><rect fill="#FFFFFF" fill-opacity="0.00000" height="97.2988" rx="10" ry="10" style="stroke:#181818;stroke-width:0.5;" width="324" x="19" y="42.9688"/><line style="stroke:#181818;stroke-width:0.5;" x1="19" x2="343" y1="66.9375" y2="66.9375"/><text fill="#000000" font-family="sans-serif" font-size="12" lengthAdjust="spacing" textLength="88.4004" x="136.7998" y="59.1074">Issued or Valid</text><rect fill="#008000" height="40" rx="10" ry="10" style="stroke:#181818;stroke-width:0.5;" width="50" x="285" y="90.2676"/><text fill="#000000" font-family="sans-serif" font-size="12" lengthAdjust="spacing" textLength="29.8477" x="295.0762" y="114.4219">Valid</text><ellipse cx="40" cy="110.2676" fill="#222222" rx="10" ry="10" style="stroke:#222222;stroke-width:1;"/><rect fill="#F1F1F1" height="40" rx="10" ry="10" style="stroke:#181818;stroke-width:0.5;" width="50" x="135" y="90.2676"/><text fill="#000000" font-family="sans-serif" font-size="12" lengthAdjust="spacing" textLength="38.6484" x="140.6758" y="114.4219">Issued</text><!--link *start*IssuedOrValid to Issued--><g id="link_*start*IssuedOrValid_Issued"><path d="M50.23,110.2676 C68.82,110.2676 102.64,110.2676 128.86,110.2676 " fill="#FFFFFF" fill-opacity="0.00000" id="*start*IssuedOrValid-to-Issued" style="stroke:#000000;stroke-width:1;"/><polygon fill="#000000" points="134.86,110.2676,125.86,106.2676,129.86,110.2676,125.86,114.2676,134.86,110.2676" style="stroke:#000000;stroke-width:1;"/><text fill="#000000" font-family="sans-serif" font-size="12" lengthAdjust="spacing" textLength="66.8672" x="59.5" y="90.4063">PID/(Q)EAA</text><text fill="#000000" font-family="sans-serif" font-size="12" lengthAdjust="spacing" textLength="18.7734" x="83.5469" y="104.375">ISS</text></g><!--link Issued to Valid--><g id="link_Issued_Valid"><path d="M185.45,110.2676 C213.11,110.2676 251.06,110.2676 278.68,110.2676 " fill="#FFFFFF" fill-opacity="0.00000" id="Issued-to-Valid" style="stroke:#000000;stroke-width:1;"/><polygon fill="#000000" points="284.68,110.2676,275.68,106.2676,279.68,110.2676,275.68,114.2676,284.68,110.2676" style="stroke:#000000;stroke-width:1;"/><text fill="#000000" font-family="sans-serif" font-size="12" lengthAdjust="spacing" textLength="66.8672" x="202.0146" y="90.4063">PID/(Q)EAA</text><text fill="#000000" font-family="sans-serif" font-size="12" lengthAdjust="spacing" textLength="81.8965" x="194.5" y="104.375">validity starts</text></g><!--link IssuedOrValid to Suspended--><g id="link_IssuedOrValid_Suspended"><path d="M149.49,140.3488 C143.22,155.8588 140.78,172.7888 149,187.2688 C154.32,196.6388 157.9089,200.8389 167.1689,206.3289 " fill="#FFFFFF" fill-opacity="0.00000" id="IssuedOrValid-to-Suspended" style="stroke:#000000;stroke-width:1;"/><polygon fill="#000000" points="172.33,209.3888,166.6282,201.3582,168.0291,206.8388,162.5484,208.2397,172.33,209.3888" style="stroke:#000000;stroke-width:1;"/><text fill="#000000" font-family="sans-serif" font-size="12" lengthAdjust="spacing" textLength="42.8086" x="150" y="170.4074">(Q)EAA</text><text fill="#000000" font-family="sans-serif" font-size="12" lengthAdjust="spacing" textLength="31.2539" x="155.7773" y="184.3762">SUSP</text></g><!--link IssuedOrValid to Revoked--><g id="link_IssuedOrValid_Revoked"><path d="M133.9,140.6988 C118.75,159.3188 103.86,181.8088 96,205.2688 C83.78,241.7388 99.7925,280.2948 113.3425,304.8648 " fill="#FFFFFF" fill-opacity="0.00000" id="IssuedOrValid-to-Revoked" style="stroke:#000000;stroke-width:1;"/><polygon fill="#000000" points="116.24,310.1188,115.3964,300.3061,113.8254,305.7404,108.3911,304.1694,116.24,310.1188" style="stroke:#000000;stroke-width:1;"/><text fill="#000000" font-family="sans-serif" font-size="12" lengthAdjust="spacing" textLength="66.8672" x="97" y="222.9074">PID/(Q)EAA</text><text fill="#000000" font-family="sans-serif" font-size="12" lengthAdjust="spacing" textLength="24.1289" x="118.3691" y="236.8762">REV</text></g><!--link IssuedOrValid to Expired--><g id="link_IssuedOrValid_Expired"><path d="M245.89,140.7188 C250.55,146.1988 254.7,152.0688 258,158.2688 C286.1,211.0488 294.62,237.7788 270,292.2688 C266.88,299.1788 266.1643,301.2342 260.5543,306.4242 " fill="#FFFFFF" fill-opacity="0.00000" id="IssuedOrValid-to-Expired" style="stroke:#000000;stroke-width:1;"/><polygon fill="#000000" points="256.15,310.4988,265.4728,307.3231,259.8203,307.1033,260.0401,301.4507,256.15,310.4988" style="stroke:#000000;stroke-width:1;"/><text fill="#000000" font-family="sans-serif" font-size="12" lengthAdjust="spacing" textLength="66.8672" x="285" y="222.9074">PID/(Q)EAA</text><text fill="#000000" font-family="sans-serif" font-size="12" lengthAdjust="spacing" textLength="23.0391" x="306.9141" y="236.8762">EXP</text></g><!--reverse link IssuedOrValid to Suspended--><g id="link_IssuedOrValid_Suspended"><path d="M193.2523,146.369 C198.3423,168.719 202.78,188.2088 206.63,205.0988 " fill="#FFFFFF" fill-opacity="0.00000" id="IssuedOrValid-backto-Suspended" style="stroke:#000000;stroke-width:1;"/><polygon fill="#000000" points="191.92,140.5188,190.0184,150.1823,193.0303,145.3939,197.8186,148.4058,191.92,140.5188" style="stroke:#000000;stroke-width:1;"/><text fill="#000000" font-family="sans-serif" font-size="12" lengthAdjust="spacing" textLength="42.8086" x="207.1025" y="170.4074">(Q)EAA</text><text fill="#000000" font-family="sans-serif" font-size="12" lengthAdjust="spacing" textLength="49.0137" x="204" y="184.3762">UNSUSP</text></g><!--link Suspended to Revoked--><g id="link_Suspended_Revoked"><path d="M187.39,245.5988 C181.4,251.0188 175.2,257.1188 170,263.2688 C157.73,277.7888 149.2993,290.9607 141.4793,304.6307 " fill="#FFFFFF" fill-opacity="0.00000" id="Suspended-to-Revoked" style="stroke:#000000;stroke-width:1;"/><polygon fill="#000000" points="138.5,309.8388,146.441,304.0129,140.9827,305.4987,139.4969,300.0405,138.5,309.8388" style="stroke:#000000;stroke-width:1;"/><text fill="#000000" font-family="sans-serif" font-size="12" lengthAdjust="spacing" textLength="42.8086" x="171" y="275.4074">(Q)EAA</text><text fill="#000000" font-family="sans-serif" font-size="12" lengthAdjust="spacing" textLength="24.1289" x="180.3398" y="289.3762">REV</text></g><!--link Suspended to Expired--><g id="link_Suspended_Expired"><path d="M214.2,245.6388 C217.24,264.0588 220.8009,285.6792 223.8409,304.0592 " fill="#FFFFFF" fill-opacity="0.00000" id="Suspended-to-Expired" style="stroke:#000000;stroke-width:1;"/><polygon fill="#000000" points="224.82,309.9788,227.2978,300.4467,224.0041,305.0458,219.405,301.7521,224.82,309.9788" style="stroke:#000000;stroke-width:1;"/><text fill="#000000" font-family="sans-serif" font-size="12" lengthAdjust="spacing" textLength="42.8086" x="223" y="275.4074">(Q)EAA</text><text fill="#000000" font-family="sans-serif" font-size="12" lengthAdjust="spacing" textLength="23.0391" x="232.8848" y="289.3762">EXP</text></g><ellipse cx="184.43" cy="460.27" fill="#FFFFFF" fill-opacity="0.00000" rx="11" ry="11" style="stroke:#222222;stroke-width:1;"/><ellipse cx="184.43" cy="460.27" fill="#222222" rx="6" ry="6" style="stroke:#222222;stroke-width:1;"/><!--link AllStates to *end*--><g id="link_AllStates_*end*"><path d="M184.43,360.51 C184.43,398.65 184.43,426.48 184.43,442.85 " fill="#FFFFFF" fill-opacity="0.00000" id="AllStates-to-*end*" style="stroke:#000000;stroke-width:1;"/><polygon fill="#000000" points="184.43,448.85,188.43,439.85,184.43,443.85,180.43,439.85,184.43,448.85" style="stroke:#000000;stroke-width:1;"/><text fill="#000000" font-family="sans-serif" font-size="12" lengthAdjust="spacing" textLength="66.8672" x="185.43" y="402.4087">PID/(Q)EAA</text><text fill="#000000" font-family="sans-serif" font-size="12" lengthAdjust="spacing" textLength="23.5078" x="207.1097" y="416.3774">DEL</text></g><!--SRC=[RP9FRzGm4CNl-HIZxQ60516MBa8z84NTBAnKODkq5H9mSEFfhXMl7NcSbWNrkpFEdoQfcbFovisydyVPAOc0-yeVG28LJbLUMHDvMu6tS6kzjtkGoc7HwD4nn35yHeDEQDR5reaza3zePRPSYgXKfX91b7WdQkrNrlXS_KLuDnyLSoyyfixPXpEhhODRBOhonVeN5BBfV_-yVAuCNkrKKHeaWdd7zbMK28LrJ4WWZ0GcGmBQM-jtwAQCpjP6dZLcc2VGFSUWXTkor8u19wIgQTGMHlf3XL1P7KwENLjD8ubdUrvAXxN4ko1I0AS68hn1gdNUIe9Wnb_jqMW6y2_gF7bD5Hg94evMgtIH99r-YVUs3EhomydYPD6fsP-ARsjGs_Wh9mofS8LDU3zwJLIZ_EvkX5QoGMWLu2jfj1bZG4lT2d2K91yJPc3vvvlV43krtVduKpSAJc6pNhvzTV4wIzDVPftdmCQkzkHj9qsjzq5J_1jocFCKFJBa52-Mzi5mzx2FK-Yxy-jyyzpErdv5qwZBx0PUCFURcvgp7vie6YBZkdewRDyyO5n_Qq16zWd4161g6i97mH0rQnX-adu5OVDJp6Ls_Xy0]--></g></svg>